<svg xmlns="http://www.w3.org/2000/svg" xmlns:xlink="http://www.w3.org/1999/xlink" version="1.1" id="Layer_1" x="0px" y="0px" width="512px" height="428.651px" viewBox="0 0 512 428.651" enable-background="new 0 0 512 428.651" xml:space="preserve">
<path d="M130.977,321.488c0,23.814-5.953,59.535-17.86,59.535h315.535c29.768,0,35.721-29.768,35.721-59.535V47.628H130.977V321.488  z M512,321.488c0,52.059-35.721,107.163-77.396,107.163H59.535C28.296,428.651,0,379.5,0,327.441v-256h83.349V0H512V321.488z   M47.628,119.069v214.326c0,31.232,7.447,50.604,17.86,50.604s17.86-19.372,17.86-50.604V119.069H47.628z M297.675,154.791h142.884  v166.697H297.675V154.791z M154.791,83.349h285.768v35.721H154.791V83.349z M154.791,154.791H273.86v23.813H154.791V154.791z   M154.791,202.419H273.86v23.813H154.791V202.419z M154.791,250.047H273.86v23.813H154.791V250.047z M154.791,297.675H273.86v23.813  H154.791V297.675z" fill="#6C7A89"/>
</svg>
