<?xml version="1.0" encoding="utf-8"?>
<!-- Generator: Adobe Illustrator 18.0.0, SVG Export Plug-In . SVG Version: 6.00 Build 0)  -->
<!DOCTYPE svg PUBLIC "-//W3C//DTD SVG 1.1//EN" "http://www.w3.org/Graphics/SVG/1.1/DTD/svg11.dtd">
<svg version="1.1" id="Capa_1" xmlns="http://www.w3.org/2000/svg" xmlns:xlink="http://www.w3.org/1999/xlink" x="0px" y="0px"
	 width="550px" height="550px" viewBox="0 0 550 550" enable-background="new 0 0 550 550" xml:space="preserve">
<g>
	<g>
		<path d="M126.9,204.3c4.8,19.3,17.4,34.2,32.3,39.3c17.4,57.2,62.3,116.7,122.9,116.7S387.4,301,404.9,243.6
			c14.9-5.2,27.4-20.2,32.3-39.3c6.9-27.4-3.9-53.1-24.5-59.4c0-1.1,0-2.2,0.2-3.2c1.1-5.8,7.6-11.3,7.6-17.5s-6.4-11.6-7.6-17.5
			c-1.1-5.9,2.7-13.4,0.4-19s-10.2-8.3-13.4-13.4c-3.1-5-2.1-13.4-6.2-18c-3.9-4.5-12.4-4.5-17-8.5c-4.6-3.8-5.9-12.2-11.2-15.5
			c-5-3.2-13.2-1-18.7-3.6c-5.4-2.6-8.8-10.3-14.7-12.2c-5.6-1.9-13.1,2.1-19,0.9c-5.8-1.2-10.9-8.1-17-8.6
			c-5.9-0.7-12.3,4.9-18.5,4.9S265,8.2,259.1,8.8c-6.2,0.7-11.2,7.4-17,8.6c-6,1.3-13.4-2.8-19-0.9c-5.8,1.9-9.3,9.6-14.7,12.2
			c-5.6,2.6-13.7,0.4-18.7,3.6c-5.2,3.2-6.6,11.6-11.2,15.5c-4.7,3.9-13.1,4-17,8.5c-4,4.6-3,13-6.2,18c-3.2,5.2-11.2,7.8-13.4,13.4
			s1.6,13.1,0.4,19c-1.1,5.8-7.6,11.3-7.6,17.5s6.4,11.6,7.6,17.5c0.4,2.6,0.1,5.4-0.3,8.2C127.7,160.2,121.2,181.6,126.9,204.3z
			 M417.3,199.4c-3.9,15.5-14,24.6-22,25.8l-6.7,0.9l-1.8,6.5C372.3,286,331.6,340.1,282,340.1S191.8,286,177.2,232.5l-1.8-6.5
			l-6.7-0.9c-8-1.1-18.1-10.3-22-25.8c-2.9-11.5-1-23.2,3.9-29.8c2-2.7,4.4-4.7,7.3-5.4c0.7-0.1,1.3-0.2,2.2-0.2
			c0.6,0,1.1,0,1.7,0.1l9.5,0.9l1.5-9.5C182.5,90.6,226.4,47.1,282,47.1s99.6,43.6,109.3,108.4l1.5,9.5l9.5-0.9
			c1.5-0.1,2.8-0.1,3.9,0.1s2.1,0.8,3.1,1.3C417.2,170.4,420.9,184.9,417.3,199.4z"/>
		<path d="M236.7,254.6c-16.1,16.1-14.4,43.9-14.4,43.9s27.8,1.7,43.9-14.4s14.4-43.9,14.4-43.9S252.8,238.5,236.7,254.6z"/>
		<path d="M280.9,240.2c0,0-1.7,27.8,14.4,43.9s43.9,14.4,43.9,14.4s1.7-27.8-14.4-43.9C308.8,238.5,280.9,240.2,280.9,240.2z"/>
	</g>
	<path d="M396.9,314.5c-12.8,21.6-27.4,39.9-46.8,49.8c-40.2,20.6-70,37.2-70,37.2l-0.1-0.1V401l-0.4,0.2l-0.4-0.2v0.4l-0.1,0.1
		c0,0-29.9-16.7-70-37.2c-19.5-10-34.2-28.2-46.8-49.8c-59.5,24.2-100.9,79.7-100.9,128.2c0,51.1,0,100.6,0,100.6h218.1h0.9h218.1
		c0,0,0-49.5,0-100.6C498,394.3,456.4,338.7,396.9,314.5z"/>
</g>
</svg>
