<?xml version="1.0" encoding="utf-8"?>
<!-- Generator: Adobe Illustrator 18.0.0, SVG Export Plug-In . SVG Version: 6.00 Build 0)  -->
<!DOCTYPE svg PUBLIC "-//W3C//DTD SVG 1.1//EN" "http://www.w3.org/Graphics/SVG/1.1/DTD/svg11.dtd">
<svg version="1.1" id="Capa_1" xmlns="http://www.w3.org/2000/svg" xmlns:xlink="http://www.w3.org/1999/xlink" x="0px" y="0px"
	 width="550px" height="550px" viewBox="0 0 550 550" enable-background="new 0 0 550 550" xml:space="preserve">
<g>
	<path d="M271.5,10C194,10,130.3,72.7,123.6,152.7c-7.6,11.6-10.3,28.2-6,45.5c1.8,6.9,4.5,13.2,8,18.8
		c8.2,68.8,34.5,93.4,70.8,102.2c21.1,22.1,47.8,37,78.3,37c30.8,0,57.7-15.3,78.9-37.9c9.6-2.8,18.4-6.9,26.2-12.9
		c0.6-0.6,1.2-1,1.9-1.4c16.9-14,29.2-37.8,34.9-77.9c6.7-7.2,12.2-16.7,14.9-27.7c5.5-21.8-0.1-42.3-12.8-53.3
		C408.4,68.7,346.4,10,271.5,10z M274.4,336.2c-14.7,0-28.6-4.8-41.5-12.8c-21.1-13.3-38.9-35.5-51.4-60.5
		c0.9-4.6,1.8-11.3,2.7-20.3c4.5-45.5,15-82.5,26.5-111.3c8.3-0.9,16.9-3.3,25-7c2.8,2.4,5.6,4.9,8.7,7.3
		c16.6,12.3,36,20.5,55.5,24.2c23,4.4,59,63.2,80.6,73.5c-10.8,37.7-34.3,75.3-64.7,94.2C303,331.5,289.1,336.2,274.4,336.2z
		 M156.1,218.8c-7.5-2.9-15.8-11.7-19.2-25.4c-4.1-16.3,0.7-32.1,10.5-35.7C147.6,178.2,151.3,199,156.1,218.8z M412,193.3
		c-2.3,9.1-6.6,15.9-11.5,20.5c4.3-14,4.5-34.2,1.7-55.8C411.4,161.9,416,177.4,412,193.3z"/>
	<path d="M388.1,319.4c-12.3,20.9-26.4,38.5-45.2,48.1c-38.7,19.8-67.5,35.9-67.5,35.9l-0.1-0.1v-0.4l-0.4,0.2l-0.4-0.2v0.4
		l-0.1,0.1c0,0-28.7-16-67.5-35.9c-18.8-9.6-32.9-27.2-45.2-48.1c-57.4,23.3-97.3,76.8-97.3,123.6c0,49.2,0,97,0,97h210.2h0.8h210.3
		c0,0,0-47.8,0-97C485.4,396.3,445.4,342.8,388.1,319.4z"/>
</g>
</svg>
