<svg width="44px" height="55px" viewBox="0 0 44 55" version="1.1" xmlns="http://www.w3.org/2000/svg" xmlns:xlink="http://www.w3.org/1999/xlink" xmlns:sketch="http://www.bohemiancoding.com/sketch/ns">
    <!-- Generator: Sketch 3.4 (15575) - http://www.bohemiancoding.com/sketch -->
    <title>svga-group-wrapper</title>
    <desc>Created with Sketch.</desc>
    <defs>
        <circle id="path-1" cx="37.9259259" cy="37.9259259" r="37.9259259"></circle>
        <linearGradient x1="50%" y1="97.9200442%" x2="50%" y2="-0.553614103%" id="linearGradient-3">
            <stop stop-color="#E1AC8F" stop-opacity="0.8" offset="0%"></stop>
            <stop stop-color="#C27B55" offset="70%"></stop>
        </linearGradient>
        <radialGradient cx="49.2227999%" cy="36.5735136%" fx="49.2227999%" fy="36.5735136%" r="48.7009293%" id="radialGradient-4">
            <stop stop-color="#FFFFFF" offset="0%"></stop>
            <stop stop-color="#FDFEFE" offset="54.4%"></stop>
            <stop stop-color="#F6F8F9" offset="74%"></stop>
            <stop stop-color="#EAEFF2" offset="87.9%"></stop>
            <stop stop-color="#D9E3E8" offset="99.2%"></stop>
            <stop stop-color="#D8E2E7" offset="100%"></stop>
        </radialGradient>
        <radialGradient cx="50.2448664%" cy="48.0444166%" fx="50.2448664%" fy="48.0444166%" r="52.6425416%" id="radialGradient-5">
            <stop stop-color="#E1AC8F" offset="0%"></stop>
            <stop stop-color="#E1AC8F" stop-opacity="0.3" offset="70%"></stop>
            <stop stop-color="#F0C7B1" stop-opacity="0" offset="100%"></stop>
        </radialGradient>
        <radialGradient cx="41.879182%" cy="192.541442%" fx="41.879182%" fy="192.541442%" r="87.98129%" id="radialGradient-6">
            <stop stop-color="#000000" stop-opacity="0" offset="90%"></stop>
            <stop stop-color="#000000" stop-opacity="0.2" offset="100%"></stop>
        </radialGradient>
        <radialGradient cx="50.7757679%" cy="36.5722863%" fx="50.7757679%" fy="36.5722863%" r="48.7047222%" id="radialGradient-7">
            <stop stop-color="#FFFFFF" offset="0%"></stop>
            <stop stop-color="#FDFEFE" offset="54.4%"></stop>
            <stop stop-color="#F6F8F9" offset="74%"></stop>
            <stop stop-color="#EAEFF2" offset="87.9%"></stop>
            <stop stop-color="#D9E3E8" offset="99.2%"></stop>
            <stop stop-color="#D8E2E7" offset="100%"></stop>
        </radialGradient>
        <radialGradient cx="49.7572439%" cy="48.0443779%" fx="49.7572439%" fy="48.0443779%" r="52.6440748%" id="radialGradient-8">
            <stop stop-color="#E1AC8F" offset="0%"></stop>
            <stop stop-color="#E1AC8F" stop-opacity="0.3" offset="70%"></stop>
            <stop stop-color="#F0C7B1" stop-opacity="0" offset="100%"></stop>
        </radialGradient>
        <radialGradient cx="58.1234289%" cy="192.540637%" fx="58.1234289%" fy="192.540637%" r="87.98129%" id="radialGradient-9">
            <stop stop-color="#000000" stop-opacity="0" offset="90%"></stop>
            <stop stop-color="#000000" stop-opacity="0.2" offset="100%"></stop>
        </radialGradient>
        <radialGradient cx="50.0006097%" cy="50.0012158%" fx="50.0006097%" fy="50.0012158%" r="49.9993292%" id="radialGradient-10">
            <stop stop-color="#FFE4D6" stop-opacity="0.5" offset="0%"></stop>
            <stop stop-color="#F0C7B1" stop-opacity="0" offset="90%"></stop>
        </radialGradient>
        <radialGradient cx="50%" cy="50.0013333%" fx="50%" fy="50.0013333%" r="49.3333333%" id="radialGradient-11">
            <stop stop-color="#FFE4D6" stop-opacity="0.5" offset="0%"></stop>
            <stop stop-color="#F0C7B1" stop-opacity="0" offset="90%"></stop>
        </radialGradient>
    </defs>
    <g id="Page-1" stroke="none" stroke-width="1" fill="none" fill-rule="evenodd" sketch:type="MSPage">
        <g id="svga-group-wrapper" sketch:type="MSLayerGroup" transform="translate(-11.000000, -9.000000)">
            <g transform="translate(-5.925926, -5.925926)">
                <mask id="mask-2" sketch:name="Mask" fill="white">
                    <use xlink:href="#path-1"></use>
                </mask>
                <use id="Mask" sketch:type="MSShapeGroup" xlink:href="#path-1"></use>
                <g mask="url(#mask-2)" id="svga-group-subwrapper">
                    <g transform="translate(15.105747, 14.704374)">
                        <g transform="translate(1.769088, 0.024199)">
                            <g id="svga-group-hair-back" transform="translate(22.246638, 25.736306)" fill="#2A232B" sketch:type="MSShapeGroup">
                                <path id="SvgjsPath3555" d="M0.327156437,0.327156437 L0.109052146,0.327156437 L0.109052146,0.109052146 L0.327156437,0.109052146 L0.327156437,0.327156437 L0.327156437,0.327156437 Z"></path>
                            </g>
                            <g id="svga-group-humanbody-single" transform="translate(0.654313, 30.534601)" sketch:type="MSShapeGroup">
                                <path d="M42.6212863,17.1818199 C42.1423293,16.1466969 40.8339216,14.6127694 39.3802565,14.1889928 C37.5832953,13.6648882 33.5269916,13.0312952 32.0229445,12.6790568 C30.8172639,12.3963936 28.3888908,10.2157869 27.5378478,9.4838289 C27.3851748,9.35296632 27.260201,9.0827351 27.2571476,8.88186105 C27.2268311,6.51237603 28.1720951,0.217886187 28.1720951,0.217886187 L21.8104291,0.217886187 L15.4489813,0.217886187 C15.4489813,0.217886187 16.3942453,6.51215793 16.3634926,8.88186105 C16.3610934,9.0827351 16.2354653,9.35296632 16.0832285,9.4838289 C15.2321856,10.2157869 12.8038124,12.3963936 11.5981319,12.6790568 C10.0938666,13.0312952 6.03756299,13.6864805 4.24081984,14.2105851 C2.78671853,14.6341436 1.47874709,16.1464788 0.999790071,17.1816017 C0.191059359,18.9281809 0,22.0889483 0,24.8152519 L21.8104291,24.8152519 L43.6208582,24.8152519 C43.6208582,22.0891664 43.4295808,18.928399 42.6212863,17.1818199 L42.6212863,17.1818199 Z" id="SvgjsPath2893" fill="#F0C7B1"></path>
                                <path d="M34.7126066,13.7532204 C40.0217012,14.5257458 42.2559616,15.6524726 42.9556402,24.8156882 L43.6208582,24.8156882 C43.6208582,22.0893845 43.4295808,18.9286171 42.6212863,17.182038 C42.1423293,16.146915 40.8339216,14.6129875 39.3802565,14.1892109 C37.5832953,13.6651063 33.5269916,13.0315133 32.0229445,12.6792749 C30.8172639,12.3966117 28.044286,10.0469742 27.3025133,9.1132697 C28.0353437,10.1392323 30.0922853,12.5167872 31.894481,13.1394749 C32.7566473,13.4374054 33.4746466,13.5730663 34.7126066,13.7532204 L34.7126066,13.7532204 Z M11.7265953,13.1394749 C13.5287911,12.5170053 15.5855145,10.1392323 16.3185631,9.1132697 C15.5770085,10.0467561 12.8040305,12.3966117 11.5981319,12.6792749 C10.0940847,13.0315133 6.03778109,13.6866986 4.24081984,14.2108032 C2.78715474,14.6343617 1.47874709,16.1466969 0.999790071,17.1818199 C0.191495568,18.928399 0.000218104291,22.0891664 0.000218104291,24.81547 L0.665436193,24.81547 C1.36075267,15.7109245 3.60439152,14.5246553 8.90846977,13.7530023 C10.1462116,13.5730663 10.8644291,13.4374054 11.7265953,13.1394749 L11.7265953,13.1394749 Z" id="SvgjsPath2894" fill="#FFE4D6"></path>
                                <path d="M20.860803,16.7111508 C20.860803,16.7111508 19.7541419,16.360221 19.3159703,16.1922807 C17.0369986,15.3179006 9.63323033,14.7512656 9.63323033,14.7512656 C9.63323033,14.7512656 17.4313312,15.0607556 19.152174,15.3573775 C19.0522823,14.3176743 18.4941534,10.9944192 18.4941534,10.9944192 C18.4941534,10.9944192 19.6171724,14.6618429 19.8919838,15.5870413 C20.0389861,16.0817018 20.860803,16.7111508 20.860803,16.7111508 L20.860803,16.7111508 Z M23.2161113,16.4184548 C23.1967,16.4343764 23.1744534,16.4550964 23.1502438,16.4769068 C23.1748896,16.4583679 23.1971362,16.4389566 23.2161113,16.4184548 L23.2161113,16.4184548 Z M20.860803,16.7111508 C20.860803,16.7111508 21.4917788,17.3637188 21.8089024,17.3720068 C22.2254816,17.3831301 22.8619099,16.7397225 23.1504619,16.4769068 C22.87456,16.6856326 22.2433661,16.7802899 21.9923281,16.7901045 C21.7022494,16.8012279 20.860803,16.7111508 20.860803,16.7111508 L20.860803,16.7111508 Z M25.444919,15.0712246 C25.1079479,15.1253145 24.4883136,15.2433089 24.4883136,15.2433089 L24.9871181,11.995736 C24.8462228,12.6655343 24.0113195,15.5314247 23.2161113,16.4184548 C23.6326905,16.0659983 24.5591975,15.8969675 25.0316114,15.8287008 C27.2641269,15.5050341 27.2632545,15.5052522 33.9874098,14.7512656 C33.9874098,14.7512656 27.6469,14.7174595 25.444919,15.0712246 L25.444919,15.0712246 Z" id="SvgjsPath2895" fill="#E1AC8F"></path>
                                <path d="M42.6212863,17.1818199 C42.1423293,16.1466969 40.8339216,14.6127694 39.3802565,14.1889928 C37.5832953,13.6648882 33.5269916,13.0312952 32.0229445,12.6790568 C30.8172639,12.3963936 28.3888908,10.2157869 27.5378478,9.4838289 C27.3851748,9.35296632 27.260201,9.0827351 27.2571476,8.88186105 C27.2268311,6.51237603 28.1720951,0.217886187 28.1720951,0.217886187 L21.8104291,0.217886187 L15.4489813,0.217886187 C15.4489813,0.217886187 16.3942453,6.51215793 16.3634926,8.88186105 C16.3610934,9.0827351 16.2354653,9.35296632 16.0832285,9.4838289 C15.2321856,10.2157869 12.8038124,12.3963936 11.5981319,12.6790568 C10.0938666,13.0312952 6.03756299,13.6864805 4.24081984,14.2105851 C2.78671853,14.6341436 1.47874709,16.1464788 0.999790071,17.1816017 C0.191059359,18.9281809 0,22.0889483 0,24.8152519 L21.8104291,24.8152519 L43.6208582,24.8152519 C43.6208582,22.0891664 43.4295808,18.928399 42.6212863,17.1818199 L42.6212863,17.1818199 Z" id="SvgjsPath2896" stroke="#C27B55" stroke-width="0.592592593"></path>
                            </g>
                            <g id="svga-group-chinshadow-single" transform="translate(16.357822, 32.497539)" fill="url(#linearGradient-3)" sketch:type="MSShapeGroup">
                                <path d="M0.785611657,7.14924056 C2.33982284,8.30562951 4.16557386,9.13115426 6.10757447,9.13115426 C8.04913887,9.13115426 9.87401747,8.30650193 11.4280105,7.15076729 C11.4053277,7.07268596 11.3909328,6.99416841 11.3898423,6.92110347 C11.3706491,5.42447183 11.7303031,2.42662834 12.0048964,0.372522129 C8.59069182,-0.0571433243 3.62293038,-0.0571433243 0.208943911,0.372522129 C0.483755318,2.42684645 0.84319119,5.42447183 0.823779908,6.92088537 C0.822907491,6.99307789 0.808512608,7.07094112 0.785611657,7.14924056 L0.785611657,7.14924056 Z" id="SvgjsPath3454"></path>
                            </g>
                            <g id="svga-group-clothes-single" transform="translate(0.000000, 37.950147)" sketch:type="MSShapeGroup">
                                <path d="M28.7585775,18.0978579 L16.0786483,18.0978579 L16.0786483,5.84410448 C20.9314688,6.86897655 24.1223346,6.79002279 28.7587956,5.84410448 L28.7587956,18.0978579 L28.7585775,18.0978579 Z" id="SvgjsPath3498" fill="#F3F1F3"></path>
                                <path d="M24.0874379,18.0391878 C23.4821985,18.0391878 21.7478332,18.0845535 20.4860999,17.9890238 L20.4839188,17.951728 C20.3055095,13.8823381 20.7301586,11.2517823 21.473458,9.38284661 L21.483927,9.35601978 L21.4636433,9.33573608 C21.2662589,9.1385698 20.9347404,8.91370428 20.5838106,8.6759706 C20.2324446,8.43758261 19.869519,8.19156097 19.6381104,7.96800407 C19.7744256,7.80835173 19.9423659,7.65088043 20.1502193,7.48795653 C20.2036548,7.46069349 20.4036564,7.30409461 21.4531743,6.40376009 C21.4998486,6.3636289 21.5284203,6.33920122 21.532128,6.33614776 C21.7105374,6.2973252 21.998435,6.27224321 22.3474019,6.27224321 C22.8235236,6.27224321 23.3792533,6.32044426 23.767697,6.39503592 C24.1081578,6.71303198 24.5203749,7.55731369 24.6745747,7.95884369 C24.4617049,8.45852062 24.2104487,8.64129202 23.863881,8.89320247 C23.6950683,9.01599519 23.5035727,9.15514573 23.2854684,9.35383874 L23.2673658,9.37019656 L23.271946,9.39440614 C24.1500339,13.8241043 24.150252,14.858791 24.150252,15.8594535 C24.1504701,16.3002423 24.1504701,17.3009048 24.2241893,18.0372249 C24.1914737,18.0387516 24.1450175,18.0391878 24.0874379,18.0391878 L24.0874379,18.0391878 Z" id="SvgjsPath3499" fill="#131111"></path>
                                <path d="M24.7221214,7.95971611 C24.5576708,7.52459805 24.1310588,6.66635766 23.788635,6.35468663 C23.1613671,6.23189391 22.0475085,6.17082471 21.5050831,6.3023416 C21.4815279,6.32153478 20.1423675,7.476397 20.128845,7.44957017 C19.9312425,7.60398801 19.7388746,7.77759902 19.5792222,7.97083943 C20.0287352,8.42362394 21.0307063,8.96452258 21.4331087,9.36670689 C20.637028,11.3689043 20.2706128,14.0755785 20.4407342,17.9556539 C20.4429152,17.9796454 20.4429152,18.0058179 20.4450963,18.0298093 C21.9186089,18.1432236 24.0547223,18.1020019 24.2728266,18.0784466 C24.0198256,15.6123414 24.5864605,15.7981662 23.3153487,9.38633628 C23.9844927,8.77673478 24.3982365,8.73289582 24.7221214,7.95971611 L24.7221214,7.95971611 Z M23.5770739,12.1124218 C23.5724937,12.1015166 23.5683497,12.0906114 23.5659506,12.0840683 C24.0021591,14.3850685 23.8669345,16.1477874 24.1964901,17.9667772 C23.1635481,17.89742 21.5761851,17.9554358 20.538663,17.9554358 C20.6191435,16.3855211 20.7977709,11.0450194 21.5724773,9.28797124 C21.6095551,9.27793844 21.6464147,9.26965048 21.6834924,9.26070821 L21.4584088,16.8367789 L22.0575413,9.18873379 C22.0619034,9.18829758 22.0662655,9.18764327 22.0706275,9.18698895 L22.4634334,16.2982794 L22.5543829,9.1588535 C22.5600536,9.15907161 22.5655062,9.1586354 22.5711769,9.1588535 L23.4869968,17.088035 L22.9853569,9.20640024 C23.0538417,9.22014081 23.1225445,9.23715294 23.1908112,9.25721854 C23.1973543,9.25721854 23.2060785,9.25939958 23.2126216,9.26376167 C23.2353045,9.48230217 23.4167672,11.0962739 23.5770739,12.1124218 L23.5770739,12.1124218 Z M23.384924,9.10061966 C22.7799027,8.82777119 21.9971264,8.87684465 21.3938499,9.15296469 C21.0272166,8.75754161 20.5039844,8.48185778 19.7515246,7.97716445 C19.871482,7.8726925 20.026336,7.74379286 20.2335351,7.58239568 C20.2509834,7.58239568 20.992538,6.97802869 21.0056243,6.96516054 C21.2062802,6.78195294 21.3851258,6.57475386 21.5552471,6.3937273 C22.1942927,6.36755478 23.1321411,6.39808938 23.6970312,6.4242619 C24.0241877,6.83342555 24.3362949,7.44847965 24.5716294,7.93790568 C24.1439269,8.5640831 23.7208046,8.84303849 23.384924,9.10061966 L23.384924,9.10061966 Z" id="SvgjsPath3500" fill="#000000"></path>
                                <path d="M17.709196,12.6668429 C15.1935811,3.92718587 16.3296864,6.21509988 15.6592338,2.78235644 C16.1015493,1.73262049 16.5224906,0.505347643 16.7589156,0.252782874 L16.776364,0.234025904 C17.276259,5.47005562 18.7301422,3.20809602 21.9637564,6.28031307 C20.1153226,7.51347473 18.4018953,10.7148095 17.709196,12.6668429 L17.709196,12.6668429 Z M29.2680692,2.78257455 C28.9522541,1.97515246 28.378858,0.791936681 28.1306553,0.529339115 C28.4412358,5.03929965 24.8272477,4.13918324 22.8198158,6.24367154 C24.7417508,7.48970136 26.5653208,10.7497062 27.2194155,12.6679334 C30.0809438,3.17734331 28.5389465,7.3442258 29.2680692,2.78257455 L29.2680692,2.78257455 Z" id="SvgjsPath3501" fill="#F3F1F4"></path>
                                <path d="M28.0920508,0.429011141 C28.0920508,1.54941288 28.000447,2.42728266 27.8168032,2.68399141 C27.2839744,3.95095924 24.9589827,4.83297299 24.2420739,5.1943718 C23.6979037,5.46198577 23.1642025,5.80702675 22.7524216,6.25217761 C23.5840532,6.79220384 23.9967065,6.99002443 25.57251,9.40160358 C26.4985809,10.952107 26.998694,12.1165658 27.2215966,12.8127547 C30.1393958,3.14397336 28.5786415,7.36494571 29.3132167,2.77777625 C28.9673033,1.88660212 28.3101551,0.62923088 28.0920508,0.429011141 L28.0920508,0.429011141 Z M28.8876953,4.68815174 C28.4608652,8.63104112 28.1262932,7.8473924 27.1995681,12.1431745 C26.6071968,10.257881 24.784063,7.14575089 22.9618017,6.23451116 C23.8204783,5.58957678 24.0590844,5.55162663 25.0837383,5.08313861 C28.2235677,3.68290906 28.3520311,2.38191696 28.1672968,0.661946524 C28.4305487,0.97230893 28.8488727,2.00568706 29.1906421,2.73851748 C29.0032905,3.42467358 28.9182299,4.40439806 28.8876953,4.68815174 L28.8876953,4.68815174 Z M17.9279546,3.6850901 C16.9665509,2.88922755 17.2387451,1.90492288 16.7962115,0.148529022 C16.5994814,0.366633314 16.1100554,1.59499668 15.6140862,2.77777625 C15.7355703,3.38759585 15.7626152,4.38934886 15.7798455,4.70581819 C15.9017658,7.36712675 16.161528,7.48991946 17.7057064,12.8105736 C18.3667805,10.8683549 20.2265558,7.49537207 22.1201372,6.26548197 C20.6084564,4.88575423 18.7057145,4.36186772 17.9279546,3.6850901 L17.9279546,3.6850901 Z M19.1188041,9.24871247 C18.6343944,10.0482828 18.133627,10.8801326 17.7294797,12.1451375 C16.7606605,7.72438158 16.4210721,8.44521626 16.0435336,4.69469487 C15.9737402,4.04670702 15.9089632,3.38018031 15.7381876,2.74048042 C16.0954424,1.95792222 16.6064607,0.498150201 16.770039,0.342423737 C17.0679694,1.88616591 16.7844338,3.27854371 18.0064722,4.04910617 C18.5781235,4.48444233 20.4283022,5.209421 21.8276594,6.30866662 C20.9790156,6.81248754 20.5223052,7.10932748 19.1188041,9.24871247 L19.1188041,9.24871247 Z" id="SvgjsPath3502" fill="#CFC8D7"></path>
                                <path d="M26.8964031,11.9573497 L26.632715,11.3785009 C26.632715,11.3785009 28.6279331,5.23341247 28.9758094,3.47767292 C29.1747205,5.29971617 26.8964031,11.9573497 26.8964031,11.9573497 L26.8964031,11.9573497 Z M17.8581613,11.7167806 L18.171359,11.0059787 C18.171359,11.0059787 16.3015509,5.23341247 15.9536746,3.47767292 C15.7547635,5.29971617 17.8581613,11.7167806 17.8581613,11.7167806 L17.8581613,11.7167806 Z" id="SvgjsPath3503" fill="#E1E0E1"></path>
                                <path d="M27.8708931,8.85612475 C29.4117999,4.31213994 28.4719885,3.93765487 29.2460406,2.42880939 C29.2752666,2.37188417 29.5505142,2.65694648 29.5803945,2.78650042 C29.8652387,4.0205345 41.2160403,6.56799263 41.5748219,6.84280403 C41.8923817,7.07355837 42.8071111,7.52699719 42.8071111,7.52699719 C43.883892,9.50520312 44.5000366,9.8602769 44.8027654,15.1571577 C44.831119,15.8295732 44.789461,17.7310065 44.789461,18.2413705 L26.128676,18.093932 C26.1733874,16.3946815 26.3904011,13.3370774 27.8708931,8.85612475 L27.8708931,8.85612475 Z M17.0585909,8.85612475 C15.5176841,4.31213994 16.4574955,3.93765487 15.6834434,2.42880939 C15.6542174,2.37188417 15.3789698,2.65694648 15.3490895,2.78650042 C15.0642453,4.0205345 3.71344366,6.56799263 3.3546621,6.84280403 C3.03710226,7.07355837 2.12237286,7.52699719 2.12237286,7.52699719 C1.04559197,9.50520312 0.429447349,9.8602769 0.126718593,15.1571577 C0.0983650353,15.8295732 0.140022955,17.7310065 0.140022955,18.2413705 L18.800808,18.093932 C18.7560966,16.3946815 18.5390829,13.3370774 17.0585909,8.85612475 L17.0585909,8.85612475 Z" id="SvgjsPath3504" fill="#1D282E"></path>
                                <path d="M29.0748287,7.63365019 C28.082018,11.2077252 26.7256274,14.4201833 26.1291122,18.093932 C25.9349994,18.0924053 26.4543057,13.1440551 27.8708931,8.85634285 C29.4117999,4.31235805 28.4719885,3.93787298 29.2460406,2.42902749 C29.2628346,2.39631185 29.1110341,2.86000157 29.1974034,2.95945713 C29.1655601,4.64474899 29.5803945,5.94814023 29.0748287,7.63365019 L29.0748287,7.63365019 Z M15.8546552,7.63365019 C16.847466,11.2077252 18.2038566,14.4201833 18.8003718,18.093932 C18.9944846,18.0924053 18.4751783,13.1440551 17.0585909,8.85634285 C15.5176841,4.31235805 16.4574955,3.93787298 15.6834434,2.42902749 C15.6666493,2.39631185 15.8184499,2.86000157 15.7320806,2.95945713 C15.7639239,4.64474899 15.3490895,5.94814023 15.8546552,7.63365019 L15.8546552,7.63365019 Z" id="SvgjsPath3505" fill="#101A1F"></path>
                                <path d="M33.9012586,6.76799426 C33.9012586,6.76799426 33.4031084,7.32655935 32.01771,8.27793027 C33.1764981,6.99438652 33.7104174,6.47878797 33.7104174,6.47878797 L33.9012586,6.76799426 L33.9012586,6.76799426 Z M34.3756354,9.35798272 L34.0423721,9.05983415 C33.0526148,12.0655294 32.3911045,13.5499472 31.2445302,17.0463771 C32.889909,13.921815 33.2824967,12.8125366 34.3756354,9.35798272 L34.3756354,9.35798272 Z M11.2190666,6.47878797 C11.2190666,6.47878797 11.7527678,6.99438652 12.911774,8.27793027 C11.5263756,7.32655935 11.0282254,6.76799426 11.0282254,6.76799426 L11.2190666,6.47878797 L11.2190666,6.47878797 Z M13.6849538,17.0463771 C12.5383795,13.5499472 11.8768692,12.0655294 10.8871119,9.05983415 L10.5538485,9.35798272 C11.6469873,12.8125366 12.039575,13.921815 13.6849538,17.0463771 L13.6849538,17.0463771 Z" id="SvgjsPath3506" fill="#070C0F"></path>
                                <path d="M39.7841857,14.0317396 C39.7841857,11.5026022 40.46249,10.0293077 41.8812584,7.89384861 C42.0138658,7.97498341 42.0843135,8.01227924 42.1746087,8.08468987 C40.6659813,9.956679 40.366306,11.7032582 39.7841857,14.0317396 L39.7841857,14.0317396 Z M31.4750665,16.5111492 C32.808338,12.8681532 33.2329871,11.4450227 34.1156551,9.01097879 C33.8648352,8.93442419 32.2244728,8.35993748 31.9740891,8.28120183 C32.0635119,8.49930612 32.6530478,8.67858785 33.6801009,9.30825494 C33.6801009,9.30847305 32.5701681,12.6679334 31.4750665,16.5111492 L31.4750665,16.5111492 Z M33.2681019,6.45087062 C33.2681019,6.45087062 32.5370163,7.35382239 31.8146549,8.26724316 C32.5535922,7.6849047 33.0683183,7.03626254 33.7101993,6.47878797 C32.8390907,5.74421272 31.417705,4.61966699 30.499486,3.84212519 C31.2244646,4.62119372 33.2681019,6.45087062 33.2681019,6.45087062 L33.2681019,6.45087062 Z M44.7273013,18.2409343 L44.7896791,18.2413705 C44.7896791,17.7310065 44.831119,15.8295732 44.8029835,15.1571577 C44.5000366,9.8602769 43.883892,9.50520312 42.8073292,7.52699719 C42.8073292,7.52699719 41.8925998,7.07355837 41.57504,6.84280403 C41.2840889,6.62011955 33.1139021,4.67877326 30.1267457,3.37930789 C33.6188136,5.77213007 40.2210486,6.65676107 42.1748268,8.08468987 C43.1196546,8.77542616 44.3918569,14.6864887 44.7273013,18.2409343 L44.7273013,18.2409343 Z M2.75094943,8.07792863 C2.86916195,7.99439469 2.88595598,7.99810246 3.00569524,7.91893061 C4.42446365,10.0543897 5.14508023,11.5026022 5.14508023,14.0315215 C4.56317798,11.7032582 4.16142988,9.88405027 2.75094943,8.07792863 L2.75094943,8.07792863 Z M11.2493831,9.30847305 C12.2764362,8.67880596 12.8659721,8.49952423 12.9553949,8.28141994 C12.7050112,8.35993748 11.0646488,8.93464229 10.8138289,9.0111969 C11.696715,11.4452408 12.121146,12.8683713 13.4544175,16.5113673 C12.3593159,12.6679334 11.2493831,9.30847305 11.2493831,9.30847305 L11.2493831,9.30847305 Z M14.4297799,3.84212519 C13.5115608,4.61944889 12.0901752,5.74421272 11.2190666,6.47878797 C11.8609476,7.03648064 12.3758918,7.6849047 13.114611,8.26724316 C12.3920315,7.35382239 11.661164,6.45087062 11.661164,6.45087062 C11.661164,6.45087062 13.7050193,4.62119372 14.4297799,3.84212519 L14.4297799,3.84212519 Z M2.7548753,8.08468987 C4.70865354,6.65676107 11.3108885,5.77191196 14.8029563,3.37930789 C11.8158,4.67877326 3.64561323,6.61990145 3.3546621,6.84280403 C3.03710226,7.07355837 2.12237286,7.52699719 2.12237286,7.52699719 C1.04559197,9.50520312 0.429447349,9.8602769 0.126718593,15.1571577 C0.0983650353,15.8295732 0.140022955,17.7310065 0.140022955,18.2413705 L0.202400782,18.2409343 C0.537627078,14.6864887 1.80982941,8.77542616 2.7548753,8.08468987 L2.7548753,8.08468987 Z" id="SvgjsPath3507" fill="#2D373D"></path>
                                <path d="M29.497733,2.48071821 C29.4870459,2.41681365 29.4011128,2.34244009 29.336772,2.33742369 C29.2722131,2.33240729 29.2425509,2.43731545 29.2131069,2.49489499 C28.4390547,4.00374047 29.303402,4.31235805 27.7624952,8.85634285 C26.2820033,13.3372955 26.1083923,16.4598946 26.0641171,18.1591452 L44.7898972,18.2413705 C44.7898972,17.7310065 44.8965502,15.8295732 44.8681967,15.1571577 C44.5652498,9.8602769 43.9275129,9.46180036 42.850732,7.48337634 C42.850732,7.48337634 41.8923817,7.00812709 41.5748219,6.77759085 C40.50851,5.96144459 41.4461404,6.78260725 36.7699844,5.4689651 C32.9365833,4.34899957 32.7296024,4.03449318 31.3394056,3.64779427 C31.0584873,3.56731379 30.4545565,3.46851254 29.8235808,3.02597894 C29.7657831,2.98562964 29.5184529,2.60503765 29.497733,2.48071821 L29.497733,2.48071821 Z M26.1668442,17.9521642 C26.9801551,12.8127547 27.4940088,11.4679236 28.6305503,7.64150195 C29.3987136,5.2196719 28.9742827,3.84474245 29.3402617,2.72543122 C29.3594549,2.66697927 29.4421164,2.66392581 29.4647992,2.72172345 C29.9956651,4.07702352 31.4796467,4.3915299 33.5725754,6.4397473 C32.3047352,7.70758755 31.9784512,8.04935697 31.8146549,8.26746126 C32.003097,8.36299094 33.032113,8.75361573 33.9738873,9.118068 C33.9204518,9.28535399 31.0480183,17.4103932 31.0142121,17.5194453 C33.195255,12.8131909 33.4770458,11.3665051 34.1156551,9.0111969 C33.9385544,8.87771707 32.3943761,8.31064591 32.1330871,8.21729728 C33.0652649,7.25240389 33.3348418,7.04040652 33.7754124,6.47878797 C34.1291776,6.47878797 30.3132249,3.57407502 30.1265276,3.37930789 C30.2272918,3.45869785 30.7267507,3.68269096 30.7830216,3.70450139 C33.9852288,4.83122815 31.4515112,4.32151843 38.4602926,6.32197099 C39.130309,6.49231044 40.0644497,6.66374041 40.7569308,6.73178895 C40.8044775,6.73615103 41.9336034,7.32655935 42.5781016,7.59766298 C41.0101499,9.22799256 40.0051253,11.3344438 39.7841857,14.0317396 C40.4862634,11.2692306 40.86402,9.8245078 42.650076,7.74619201 C44.3120307,11.1097964 44.1233705,10.6240781 44.6631787,18.1519477 C40.167613,17.974629 33.2737726,17.9340616 26.1668442,17.9521642 L26.1668442,17.9521642 Z M15.1061213,3.02619704 C14.4749275,3.46851254 13.8712148,3.56731379 13.5902965,3.64801237 C12.2000997,4.03449318 11.9931188,4.34921767 8.15971774,5.46918321 C3.48356174,6.78282535 4.42097398,5.9616627 3.35488021,6.77780895 C3.03732036,7.00856329 2.0789701,7.48359444 2.0789701,7.48359444 C1.00218922,9.46180036 0.364452271,9.8602769 0.0615054101,15.1573758 C0.0331518523,15.8297914 0.139804851,17.7312246 0.139804851,18.2415886 L18.865585,18.1593633 C18.8213098,16.4601128 18.6476988,13.3375136 17.1672069,8.85656095 C15.6263,4.31257615 16.4904293,4.00395858 15.7165952,2.49511309 C15.686933,2.43753356 15.657489,2.33262539 15.5929301,2.33764179 C15.5285893,2.34265819 15.4426562,2.41703176 15.4319691,2.48093631 C15.4110311,2.60503765 15.1637008,2.98562964 15.1061213,3.02619704 L15.1061213,3.02619704 Z M0.26630534,18.1519477 C0.806331565,10.6240781 0.617453248,11.1097964 2.27940795,7.74619201 C4.06524588,9.8245078 4.44322062,11.2692306 5.14529833,14.0317396 C4.92435869,11.3344438 3.91955222,9.22799256 2.35138236,7.59766298 C2.99588054,7.32655935 4.12500646,6.73615103 4.1725532,6.73178895 C4.86503432,6.66374041 5.799175,6.49231044 6.46919138,6.32197099 C13.4779728,4.32151843 10.9444733,4.83122815 14.1464624,3.70450139 C14.2027333,3.68247285 14.7021922,3.45869785 14.8029563,3.37930789 C14.6162591,3.57407502 10.8000883,6.47878797 11.1540716,6.47878797 C11.5948603,7.04040652 11.8642191,7.25240389 12.7963969,8.21729728 C12.5351079,8.31064591 10.9909295,8.87749897 10.8138289,9.0111969 C11.4524382,11.3665051 11.734229,12.8131909 13.9152719,17.5194453 C13.8814657,17.4103932 11.0090322,9.28535399 10.9555967,9.118068 C11.897371,8.75339762 12.926387,8.36277284 13.1148291,8.26746126 C12.9510328,8.04935697 12.6247488,7.70758755 11.3569085,6.4397473 C13.4498373,4.3915299 14.9338189,4.07702352 15.4646848,2.72172345 C15.4873676,2.66370771 15.5700291,2.66697927 15.5892223,2.72543122 C15.9552013,3.84474245 15.5305523,5.2196719 16.2989337,7.64150195 C17.4354751,11.4679236 17.9493289,12.8127547 18.7626398,17.9521642 C11.6557114,17.9340616 4.76187099,17.974629 0.26630534,18.1519477 L0.26630534,18.1519477 Z" id="SvgjsPath3508" fill="#000000"></path>
                            </g>
                            <g id="svga-group-head" transform="translate(0.654313, 0.000000)">
                                <g id="svga-group-ears-left" transform="translate(6.761233, 20.719908)" sketch:type="MSShapeGroup">
                                    <path d="M3.5372154,1.20066412 C3.32630855,0.658238751 1.77449651,-0.108397833 1.09226629,0.0126500489 C0.320613308,0.149401439 0.0370777295,0.962712341 0.139368642,1.5653345 C0.379937675,2.98017704 1.01091339,3.57603796 1.29444897,4.6811724 C1.53349127,5.61313204 2.043201,6.14945049 2.29511146,6.54552788 C2.60481955,7.03146424 2.89053617,8.14663149 2.95444073,8.30933729 C3.05542302,8.56670035 3.41311405,9.19113294 4.04539839,9.15907161 C4.77234,9.12155767 5.69099527,7.70039011 5.70604447,7.3847932 C5.78936031,5.67267451 4.08574769,2.6126713 3.5372154,1.20066412 L3.5372154,1.20066412 Z" id="SvgjsPath3487" stroke="#C27B55" stroke-width="0.592592593" fill="#F0C7B1"></path>
                                    <path d="M3.69752205,6.97061315 C3.69752205,6.97061315 3.79108879,6.73702345 3.67702025,6.52960627 C3.53045416,6.26286472 3.14855355,5.77322059 3.06174804,5.48030653 C2.99086415,5.24082801 3.02685135,4.72893724 3.01529183,4.47855352 C2.99479002,4.0358018 2.68988022,3.73263684 2.59500486,3.47854534 C1.95944895,1.7788586 1.11364051,0.725414873 0.632066236,0.506656269 C0.275901928,1.37667429 0.558128881,2.01310261 1.05518856,3.35182675 C0.755295161,1.53240075 1.04341093,0.963584759 1.04341093,0.963584759 C1.04341093,0.963584759 1.91975397,1.71931613 2.35225478,3.4002459 C2.43055422,3.70362897 2.10994091,4.33678573 2.17122822,4.64453088 C2.24800093,5.03101169 3.08377657,5.7788913 3.31780248,6.09165285 C3.50035577,6.33527535 3.69752205,6.97061315 3.69752205,6.97061315 L3.69752205,6.97061315 Z" id="SvgjsPath3488" fill="#C27B55"></path>
                                </g>
                                <g id="svga-group-ears-right" transform="translate(30.970809, 20.719908)" sketch:type="MSShapeGroup">
                                    <path d="M2.29445714,1.20066412 C2.50536399,0.658238751 4.05717603,-0.108397833 4.73962435,0.0126500489 C5.51149544,0.149401439 5.79481291,0.962712341 5.692522,1.5653345 C5.45173486,2.98017704 4.82097725,3.57603796 4.53722357,4.6811724 C4.29818127,5.61313204 3.78825343,6.14945049 3.53656108,6.54552788 C3.22685299,7.03146424 2.94113637,8.14663149 2.87723181,8.30933729 C2.77624952,8.56670035 2.41834038,9.19113294 1.78627415,9.15907161 C1.05955065,9.12155767 0.140677268,7.70039011 0.125846176,7.3847932 C0.0420941282,5.67267451 1.74614296,2.6126713 2.29445714,1.20066412 L2.29445714,1.20066412 Z" id="SvgjsPath3489" stroke="#C27B55" stroke-width="0.592592593" fill="#F0C7B1"></path>
                                    <path d="M2.13415049,6.97061315 C2.13415049,6.97061315 2.04036564,6.73702345 2.15465229,6.52960627 C2.30121838,6.26286472 2.68333709,5.77322059 2.76970639,5.48030653 C2.84037218,5.24082801 2.80460308,4.72893724 2.81659882,4.47855352 C2.83710062,4.0358018 3.14157421,3.73263684 3.23666768,3.47854534 C3.87222359,1.7788586 4.71825013,0.725414873 5.1996063,0.506656269 C5.55577061,1.37667429 5.27332555,2.01310261 4.77670208,3.35182675 C5.07659548,1.53240075 4.78826161,0.963584759 4.78826161,0.963584759 C4.78826161,0.963584759 3.91191857,1.71931613 3.47919965,3.4002459 C3.40133642,3.70362897 3.72151352,4.33678573 3.66022622,4.64453088 C3.5834535,5.03101169 2.74767786,5.7788913 2.51387006,6.09165285 C2.33131677,6.33527535 2.13415049,6.97061315 2.13415049,6.97061315 L2.13415049,6.97061315 Z" id="SvgjsPath3490" fill="#C27B55"></path>
                                </g>
                                <g id="svga-group-faceshape-wrap" transform="translate(8.506067, 4.143982)" sketch:type="MSShapeGroup">
                                    <g id="svga-group-faceshape-single">
                                        <path d="M13.304798,0.18909642 C5.9719136,0.177318789 0.0405673982,6.18172993 0.029225975,13.6022922 C0.0274811407,14.7807097 0.175137746,15.9240124 0.455183656,17.0136614 L0.456056073,17.0136614 C0.45845522,17.0254391 2.35639876,25.5722919 3.62271228,28.1751485 C4.94725964,30.8986168 8.81664787,35.3038873 13.304798,35.3038873 C17.7938205,35.3038873 21.6625544,30.8988349 22.9868837,28.1751485 C24.2529791,25.5720738 26.1509226,17.025221 26.1535399,17.0136614 L26.1546304,17.0136614 C26.4344582,15.9237943 26.5823329,14.7807097 26.58037,13.6022922 C26.5692467,6.18172993 20.6376823,0.177318789 13.304798,0.18909642 L13.304798,0.18909642 Z" id="SvgjsPath3451" fill="#F0C7B1"></path>
                                        <path d="M17.8308982,0.984086562 C22.5072723,3.05367818 25.7722936,7.77476367 25.7807996,13.2770987 C25.7825445,14.4555162 25.6348879,15.5988189 25.354842,16.6884679 L25.3537514,16.6884679 C25.3513523,16.7002456 23.4534087,25.2468803 22.1870952,27.8503913 C20.9419378,30.4104994 17.4742977,34.9320195 13.304798,34.9320195 C9.13529824,34.9320195 5.66765811,30.4107175 4.42250071,27.8503913 C3.1561872,25.2468803 1.25846176,16.7002456 1.25584451,16.6884679 L1.25497209,16.6884679 C0.974926182,15.5986008 0.827051472,14.4555162 0.829014411,13.2770987 C0.837302374,7.77454556 4.10232361,3.05367818 8.77891583,0.984086562 C3.67832887,2.84887825 0.038168251,7.79068528 0.029225975,13.6022922 C0.0274811407,14.7807097 0.175137746,15.9240124 0.455183656,17.0136614 L0.456056073,17.0136614 C0.45845522,17.0254391 2.35639876,25.5722919 3.62271228,28.1751485 C4.94725964,30.8986168 8.81664787,35.3038873 13.304798,35.3038873 C17.7931662,35.3038873 21.6623363,30.8988349 22.9868837,28.1751485 C24.2529791,25.5720738 26.1509226,17.025221 26.1535399,17.0136614 L26.1546304,17.0136614 C26.4344582,15.9237943 26.5823329,14.7807097 26.58037,13.6022922 C26.5716458,7.79068528 22.9314852,2.84887825 17.8308982,0.984086562 L17.8308982,0.984086562 Z" id="SvgjsPath3452" fill="#E8B9A0"></path>
                                        <path d="M13.304798,0.18909642 C5.9719136,0.177318789 0.0405673982,6.18172993 0.029225975,13.6022922 C0.0274811407,14.7807097 0.175137746,15.9240124 0.455183656,17.0136614 L0.456056073,17.0136614 C0.45845522,17.0254391 2.35639876,25.5722919 3.62271228,28.1751485 C4.94725964,30.8986168 8.81664787,35.3038873 13.304798,35.3038873 C17.7938205,35.3038873 21.6625544,30.8988349 22.9868837,28.1751485 C24.2529791,25.5720738 26.1509226,17.025221 26.1535399,17.0136614 L26.1546304,17.0136614 C26.4344582,15.9237943 26.5823329,14.7807097 26.58037,13.6022922 C26.5692467,6.18172993 20.6376823,0.177318789 13.304798,0.18909642 L13.304798,0.18909642 Z" id="SvgjsPath3453" stroke="#C27B55" stroke-width="0.592592593"></path>
                                    </g>
                                </g>
                                <g id="svga-group-mouth-single" transform="translate(18.320760, 32.715644)" fill="#C27B55" sketch:type="MSShapeGroup">
                                    <path d="M3.56382412,2.38278938 C3.23099697,2.38278938 2.90994745,2.34069525 2.71321738,2.26348633 C2.65716458,2.2412397 2.62946533,2.17798945 2.65149387,2.12215475 C2.6735224,2.06610195 2.73655454,2.03862081 2.79282545,2.06043124 C3.15575099,2.20285334 4.06982607,2.20786974 4.47310091,2.01833711 C4.52784509,1.99281891 4.59262206,2.01615607 4.61814026,2.07046404 C4.64387657,2.12499011 4.62053941,2.18998519 4.56601334,2.21550339 C4.32173653,2.33022625 3.93547383,2.38278938 3.56382412,2.38278938 L3.56382412,2.38278938 Z M6.76668564,0.533046888 C6.85349114,0.495751054 6.89405854,0.395204976 6.85676271,0.308181363 C6.81946687,0.221157751 6.71826648,0.181026562 6.63189718,0.218104291 C4.08749252,1.30688091 0.363143645,0.291823542 0.326065915,0.281790744 C0.235116426,0.256490646 0.140241059,0.309489989 0.114940961,0.400875687 C0.0896408637,0.492043281 0.142858311,0.586482439 0.234025904,0.612000641 C0.335008191,0.63991799 1.91168411,1.07001965 3.73111011,1.07001965 C4.73875194,1.06980155 5.82011301,0.938066557 6.76668564,0.533046888 L6.76668564,0.533046888 Z" id="SvgjsPath3450"></path>
                                </g>
                                <g id="svga-group-eyes-left" transform="translate(11.559527, 17.666448)" sketch:type="MSShapeGroup">
                                    <g id="svga-group-eyesback-left" transform="translate(1.526730, 3.271564)" fill="url(#radialGradient-4)">
                                        <path d="M5.0318841,2.64451453 C4.31366667,2.47352077 3.94812388,2.87548698 2.89249911,2.89882413 C1.13523284,2.93742859 0.724978664,2.76403568 0.449949153,2.32346501 C0.335880608,2.14091172 0.226828463,1.90295994 0.174265329,1.75617575 L0.1524549,0.851261049 C0.442097398,-0.0100327974 4.41443085,-0.0979288268 5.80135604,1.2403591 C5.86395197,1.38561656 5.8957952,1.52105933 5.90277454,1.64755982 C5.86133472,1.85650373 5.79110514,2.05715967 5.69622977,2.24712851 C5.54224814,2.42379299 5.31193001,2.55814523 5.0318841,2.64451453 L5.0318841,2.64451453 Z" id="SvgjsPath3231"></path>
                                    </g>
                                    <g id="svga-group-eyesiriswrapper-left" transform="translate(3.326090, 3.326090)">
                                        <g id="svga-group-eyesiriscontrol-left">
                                            <g id="svga-group-eyesiris-left">
                                                <path d="M2.57101338,1.87307965 C2.38148076,2.56926855 1.66326332,2.97952272 0.965547697,2.78824526 C0.268268278,2.5971859 -0.143294519,1.87700553 0.046456214,1.18059853 C0.235988843,0.483755318 0.9555149,0.0735011461 1.65279432,0.264996714 C2.34941943,0.455837969 2.76098222,1.17601834 2.57101338,1.87307965 L2.57101338,1.87307965 Z" id="SvgjsPath3381" stroke="#152975" stroke-width="0.592592593" fill="#4E60A3"></path>
                                                <path d="M2.53938826,1.60764673 C2.44320427,2.38082644 1.86937188,2.78366507 1.24123152,2.74157094 C0.661510315,2.70253027 0.143294519,2.27482776 0.0953115753,1.53654473 C0.295749419,1.4789652 0.562054758,1.57253194 0.795644454,1.53676284 C0.794990142,1.5452689 0.791936681,1.55290255 0.791718577,1.56140862 C0.773397817,1.8449442 1.00066249,2.09205636 1.29968347,2.11212196 C1.59935877,2.13218755 1.85715804,1.91757293 1.8756969,1.63425545 C1.87765984,1.59739583 1.8754788,1.56097241 1.86980809,1.52607573 C2.07787958,1.55748274 2.33218919,1.52651193 2.53938826,1.60764673 L2.53938826,1.60764673 Z" id="SvgjsPath3382" fill="#6777B2"></path>
                                                <path d="M1.49772217,1.09008525 C1.21004261,1.00785993 0.916038023,1.17209246 0.841882564,1.4588996 C0.767509001,1.74418002 0.940683808,2.0429829 1.22814526,2.12542632 C1.51647914,2.20808784 1.81026562,2.04363721 1.88485728,1.75813869 C1.95988516,1.47111344 1.78583794,1.17252867 1.49772217,1.09008525 L1.49772217,1.09008525 Z" id="SvgjsPath3383" opacity="0.9" fill="#000000"></path>
                                                <path d="M1.49772217,1.09008525 C1.21004261,1.00785993 0.916038023,1.17209246 0.841882564,1.4588996 C0.767509001,1.74418002 0.940683808,2.0429829 1.22814526,2.12542632 C1.51647914,2.20808784 1.81026562,2.04363721 1.88485728,1.75813869 C1.95988516,1.47111344 1.78583794,1.17252867 1.49772217,1.09008525 L1.49772217,1.09008525 Z" id="SvgjsPath3384" stroke="#152975" stroke-width="0.592592593"></path>
                                                <path d="M0.68920956,2.32433743 C0.661946524,2.41964901 0.513417502,2.37908161 0.540680538,2.28333382 C0.567071157,2.19107571 0.637955052,2.13436859 0.68310264,2.0532338 C0.731303688,1.96642829 0.864347306,2.04407342 0.815928153,2.13087893 C0.778850424,2.19805505 0.710365677,2.24952766 0.68920956,2.32433743 L0.68920956,2.32433743 L0.68920956,2.32433743 Z M0.926070821,2.17231874 C0.885067214,2.22008358 0.831413558,2.39696616 0.808294503,2.4547638 C0.771216774,2.54680381 0.920182005,2.58649879 0.956823526,2.4957674 C0.969473574,2.46414228 1.01265822,2.3075434 1.03512297,2.28137089 C1.09924563,2.20634301 0.990847795,2.09685466 0.926070821,2.17231874 L0.926070821,2.17231874 L0.926070821,2.17231874 Z M1.24668413,2.6277205 C1.32716461,2.53502618 1.31909475,2.42880939 1.31734992,2.31343222 C1.31582319,2.21419476 1.16184156,2.21419476 1.16336829,2.31343222 C1.16424071,2.37733677 1.18343388,2.46632333 1.13785009,2.51888646 C1.07307311,2.59347813 1.18147095,2.70274838 1.24668413,2.6277205 L1.24668413,2.6277205 L1.24668413,2.6277205 Z M1.40393732,2.29423904 C1.40502784,2.38976872 1.41702358,2.48289925 1.44515903,2.57450305 C1.47438501,2.66916032 1.62291403,2.62881102 1.59368806,2.53349945 C1.56926038,2.45454569 1.55900947,2.37668246 1.55791895,2.29423904 C1.55682843,2.19500159 1.4028468,2.19478348 1.40393732,2.29423904 L1.40393732,2.29423904 L1.40393732,2.29423904 Z" id="SvgjsPath3385" opacity="0.5" fill="#FFFFFF"></path>
                                                <path d="M2.22400946,1.30230072 C2.07242698,1.39325021 1.84450799,1.3114611 1.71517215,1.11931122 C1.58605441,0.927161342 1.60546569,0.697497523 1.75726627,0.606984242 C1.90863065,0.515598544 2.13720395,0.597605758 2.26544927,0.789755639 C2.39456701,0.981905519 2.37581004,1.21135123 2.22400946,1.30230072 L2.22400946,1.30230072 Z" id="SvgjsPath3386" opacity="0.8" fill="#FFFFFF"></path>
                                            </g>
                                        </g>
                                    </g>
                                    <g id="svga-group-eyesfront-left">
                                        <path d="M0.158998028,4.81966863 C0.0756821891,5.54028521 2.30819771,9.61883545 4.53656926,9.61883545 C6.7649408,9.61883545 8.78960294,8.46462754 8.78960294,4.81988673 C8.78960294,0.940029495 6.7649408,0.0213742205 4.53656926,0.0213742205 C2.30819771,0.0213742205 0.572741869,1.24406688 0.158998028,4.81966863 L0.158998028,4.81966863 Z M1.70121347,5.02795823 L1.67940304,4.12304352 C1.96904554,3.26174968 5.941379,3.17385365 7.32830419,4.51214158 C7.63277778,5.21683654 7.23909953,5.70669878 6.55861414,5.916297 C5.84039671,5.74530324 5.47485392,6.14726945 4.41922915,6.17060661 C2.66196287,6.20921107 2.2517087,6.03581816 1.97667919,5.59524749 C1.86261065,5.41247609 1.7535585,5.17474241 1.70121347,5.02795823 L1.70121347,5.02795823 Z" id="SvgjsPath3256" fill="#F0C7B1"></path>
                                        <path d="M1.46086254,4.45194479 C1.46587894,6.09514252 3.12848795,7.41903557 5.17692346,7.41074761 C7.22470465,7.40136912 8.88142484,6.06308119 8.87619034,4.41988346 C8.87117394,2.77690384 7.20834682,1.45257458 5.15969322,1.46108065 C3.11125771,1.47067724 1.45540994,2.80874706 1.46086254,4.45194479 L1.46086254,4.45194479 Z M1.70121347,5.02795823 L1.67940304,4.12304352 C1.96904554,3.26174968 5.941379,3.17385365 7.32830419,4.51214158 C7.63277778,5.21683654 7.23909953,5.70669878 6.55861414,5.916297 C5.84039671,5.74530324 5.47485392,6.14726945 4.41922915,6.17060661 C2.66196287,6.20921107 2.2517087,6.03581816 1.97667919,5.59524749 C1.86261065,5.41247609 1.7535585,5.17474241 1.70121347,5.02795823 L1.70121347,5.02795823 Z" id="SvgjsPath3257" fill="url(#radialGradient-5)"></path>
                                        <path d="M1.97667919,5.59524749 C1.86261065,5.4126942 1.7535585,5.17474241 1.70099537,5.02795823 L1.67918494,4.12304352 C1.96882744,3.26174968 5.94116089,3.17385365 7.32808608,4.51214158 C7.63255967,5.21683654 7.23888143,5.70669878 6.55839604,5.916297 C5.84017861,5.74530324 5.47463581,6.14726945 4.41901104,6.17060661 C2.66218098,6.20921107 2.2517087,6.03560005 1.97667919,5.59524749 L1.97667919,5.59524749 Z" id="SvgjsPath3262" fill="url(#radialGradient-6)"></path>
                                        <path d="M7.95317298,4.18607566 C5.85566401,2.92957684 4.31061321,2.84953256 1.82073462,3.00962111 C3.89905041,2.68224657 6.29274501,2.91976215 7.95317298,4.18607566 L7.95317298,4.18607566 Z" id="SvgjsPath3266" fill="#C27B55"></path>
                                        <path d="M7.68381418,5.07812221 C6.97715628,3.26458503 2.02553455,3.25389792 1.70099537,4.16622817 L1.70099537,5.01574439 C1.47831089,4.68008188 1.47264017,4.65958008 1.3775467,4.27331738 L0.898807784,4.43602318 C0.898807784,4.43602318 1.49772217,3.59130526 2.05454242,3.48050828 C6.89340423,2.51670542 7.64237436,4.78717109 7.68381418,5.07812221 L7.68381418,5.07812221 Z M6.92328452,5.98041967 C5.91455217,5.54857317 5.62774503,6.06286309 4.4013446,6.08838129 C2.65563785,6.12502281 2.31474084,5.9213134 1.97493436,5.54835506 C2.15225315,6.00441114 2.27482776,6.2212068 4.34681852,6.20855675 C5.51934719,6.20135931 6.1599195,5.71694968 6.92328452,5.98041967 L6.92328452,5.98041967 Z" id="SvgjsPath3267" fill="#000000"></path>
                                    </g>
                                </g>
                                <g id="svga-group-eyes-right" transform="translate(22.900951, 17.666448)" sketch:type="MSShapeGroup">
                                    <g id="svga-group-eyesback-right" transform="translate(1.526730, 3.271564)" fill="url(#radialGradient-7)">
                                        <path d="M0.987794335,2.64451453 C1.70601177,2.47352077 2.07155456,2.87548698 3.12717933,2.89882413 C4.8844456,2.93742859 5.29469977,2.76403568 5.56972928,2.32346501 C5.68379783,2.14091172 5.79284997,1.90295994 5.84541311,1.75617575 L5.86722354,0.851261049 C5.57758104,-0.0100327974 1.60524758,-0.0979288268 0.218322396,1.2403591 C0.155726464,1.38561656 0.123883237,1.52105933 0.1169039,1.64755982 C0.158343715,1.85650373 0.228573297,2.05715967 0.323448664,2.24712851 C0.477430293,2.42379299 0.707748425,2.55814523 0.987794335,2.64451453 L0.987794335,2.64451453 Z" id="SvgjsPath3239"></path>
                                    </g>
                                    <g id="svga-group-eyesiriswrapper-right" transform="translate(3.217038, 3.326090)">
                                        <g id="svga-group-eyesiriscontrol-right">
                                            <g id="svga-group-eyesiris-right">
                                                <path d="M2.57101338,1.87307965 C2.38148076,2.56926855 1.66326332,2.97952272 0.965329593,2.78824526 C0.268268278,2.5971859 -0.143512624,1.87700553 0.0462381097,1.18059853 C0.235770739,0.483755318 0.9555149,0.0735011461 1.65257621,0.264996714 C2.34941943,0.455837969 2.76076412,1.17601834 2.57101338,1.87307965 L2.57101338,1.87307965 Z" id="SvgjsPath3387" stroke="#152975" stroke-width="0.592592593" fill="#4E60A3"></path>
                                                <path d="M2.53938826,1.60764673 C2.44342237,2.38082644 1.86937188,2.78366507 1.24144963,2.74157094 C0.661946524,2.70253027 0.143512624,2.27482776 0.0953115753,1.53654473 C0.295749419,1.4789652 0.562272863,1.57253194 0.795862559,1.53676284 C0.794990142,1.5452689 0.792154786,1.55290255 0.791718577,1.56140862 C0.773179712,1.8449442 1.00066249,2.09205636 1.29968347,2.11212196 C1.59935877,2.13218755 1.85693994,1.91757293 1.8754788,1.63425545 C1.87744174,1.59739583 1.8752607,1.56097241 1.86980809,1.52607573 C2.07787958,1.55748274 2.33218919,1.52651193 2.53938826,1.60764673 L2.53938826,1.60764673 Z" id="SvgjsPath3388" fill="#6777B2"></path>
                                                <path d="M1.49772217,1.09008525 C1.21004261,1.00785993 0.916256127,1.17209246 0.841882564,1.4588996 C0.767509001,1.74418002 0.940683808,2.0429829 1.22814526,2.12542632 C1.51647914,2.20808784 1.81026562,2.04363721 1.88485728,1.75813869 C1.95988516,1.47111344 1.78583794,1.17252867 1.49772217,1.09008525 L1.49772217,1.09008525 Z" id="SvgjsPath3389" opacity="0.9" fill="#000000"></path>
                                                <path d="M1.49772217,1.09008525 C1.21004261,1.00785993 0.916256127,1.17209246 0.841882564,1.4588996 C0.767509001,1.74418002 0.940683808,2.0429829 1.22814526,2.12542632 C1.51647914,2.20808784 1.81026562,2.04363721 1.88485728,1.75813869 C1.95988516,1.47111344 1.78583794,1.17252867 1.49772217,1.09008525 L1.49772217,1.09008525 Z" id="SvgjsPath3390" stroke="#152975" stroke-width="0.592592593"></path>
                                                <path d="M0.68920956,2.32433743 C0.661946524,2.41964901 0.513417502,2.37908161 0.540462434,2.28333382 C0.566853053,2.19107571 0.637955052,2.13436859 0.68310264,2.0532338 C0.731085584,1.96642829 0.864129202,2.04407342 0.815928153,2.13087893 C0.778850424,2.19805505 0.710365677,2.24952766 0.68920956,2.32433743 L0.68920956,2.32433743 L0.68920956,2.32433743 Z M0.926070821,2.17231874 C0.885067214,2.22008358 0.831413558,2.39696616 0.808294503,2.4547638 C0.770998669,2.54680381 0.920182005,2.58649879 0.956823526,2.4957674 C0.969691679,2.46414228 1.01265822,2.3075434 1.03490486,2.28137089 C1.09924563,2.20634301 0.990847795,2.09685466 0.926070821,2.17231874 L0.926070821,2.17231874 L0.926070821,2.17231874 Z M1.24668413,2.6277205 C1.32716461,2.53502618 1.31909475,2.42880939 1.31734992,2.31343222 C1.31582319,2.21419476 1.16184156,2.21419476 1.16336829,2.31343222 C1.16424071,2.37733677 1.18343388,2.46632333 1.13785009,2.51888646 C1.07307311,2.59347813 1.18168905,2.70274838 1.24668413,2.6277205 L1.24668413,2.6277205 L1.24668413,2.6277205 Z M1.40415543,2.29423904 C1.40524595,2.38976872 1.41702358,2.48289925 1.44515903,2.57450305 C1.47460311,2.66916032 1.62291403,2.62881102 1.59368806,2.53349945 C1.56926038,2.45454569 1.55900947,2.37668246 1.55791895,2.29423904 C1.55682843,2.19500159 1.4028468,2.19478348 1.40415543,2.29423904 L1.40415543,2.29423904 L1.40415543,2.29423904 Z" id="SvgjsPath3391" opacity="0.5" fill="#FFFFFF"></path>
                                                <path d="M2.22400946,1.30230072 C2.07242698,1.39325021 1.84450799,1.3114611 1.71517215,1.11931122 C1.58605441,0.927161342 1.60524758,0.697497523 1.75704817,0.606984242 C1.90863065,0.515598544 2.13698585,0.597605758 2.26523117,0.789755639 C2.39456701,0.981905519 2.37581004,1.21135123 2.22400946,1.30230072 L2.22400946,1.30230072 Z" id="SvgjsPath3392" opacity="0.8" fill="#FFFFFF"></path>
                                            </g>
                                        </g>
                                    </g>
                                    <g id="svga-group-eyesfront-right">
                                        <path d="M4.53678736,0.0213742205 C2.30841582,0.0213742205 0.283753683,0.940029495 0.283753683,4.81988673 C0.283753683,8.46462754 2.30841582,9.61883545 4.53678736,9.61883545 C6.76515891,9.61883545 8.87509982,5.68597887 8.91414049,4.81966863 C9.07684629,1.22378318 6.76515891,0.0213742205 4.53678736,0.0213742205 L4.53678736,0.0213742205 Z M7.09645932,5.59524749 C6.82142981,6.03581816 6.41095754,6.20921107 4.65390937,6.17060661 C3.5982846,6.14726945 3.2327418,5.74530324 2.51452437,5.916297 C1.83403898,5.70669878 1.44036074,5.21683654 1.74483433,4.51214158 C3.13175952,3.17385365 7.10409297,3.26174968 7.39373547,4.12304352 L7.37192504,5.02795823 C7.31979812,5.17474241 7.21074597,5.41247609 7.09645932,5.59524749 L7.09645932,5.59524749 Z" id="SvgjsPath3277" fill="#F0C7B1"></path>
                                        <path d="M3.9134453,1.46108065 C1.86479169,1.45235648 0.202182678,2.77690384 0.197166279,4.41988346 C0.191713672,6.0632993 1.84865197,7.40136912 3.89643316,7.41074761 C5.94465056,7.41881747 7.60725957,6.09492442 7.61227597,4.45194479 C7.61794668,2.80874706 5.9620989,1.47067724 3.9134453,1.46108065 L3.9134453,1.46108065 Z M7.09645932,5.59524749 C6.82142981,6.03581816 6.41095754,6.20921107 4.65390937,6.17060661 C3.5982846,6.14726945 3.2327418,5.74530324 2.51452437,5.916297 C1.83403898,5.70669878 1.44036074,5.21683654 1.74483433,4.51214158 C3.13175952,3.17385365 7.10409297,3.26174968 7.39373547,4.12304352 L7.37192504,5.02795823 C7.31979812,5.17474241 7.21074597,5.41247609 7.09645932,5.59524749 L7.09645932,5.59524749 Z" id="SvgjsPath3278" fill="url(#radialGradient-8)"></path>
                                        <path d="M7.09645932,5.59524749 C7.21052787,5.4126942 7.31958001,5.17474241 7.37214315,5.02795823 L7.39395358,4.12304352 C7.10431108,3.26174968 3.13197762,3.17385365 1.74505243,4.51214158 C1.44057884,5.21683654 1.83425709,5.70669878 2.51474248,5.916297 C3.23295991,5.74530324 3.5985027,6.14726945 4.65412747,6.17060661 C6.41117564,6.20921107 6.82142981,6.03560005 7.09645932,5.59524749 L7.09645932,5.59524749 Z" id="SvgjsPath3283" fill="url(#radialGradient-9)"></path>
                                        <path d="M1.12018364,4.18607566 C3.21769261,2.92957684 4.76274341,2.84953256 7.252622,3.00962111 C5.1743062,2.68224657 2.78061161,2.91976215 1.12018364,4.18607566 L1.12018364,4.18607566 Z" id="SvgjsPath3287" fill="#C27B55"></path>
                                        <path d="M7.0188142,3.48029018 C7.57563445,3.59108715 8.17454884,4.43580507 8.17454884,4.43580507 L7.69580992,4.27309927 C7.60049834,4.65936197 7.59482763,4.67986378 7.37236125,5.01552628 L7.37236125,4.16601007 C7.04804017,3.25367982 2.09641845,3.26436693 1.38954244,5.07790411 C1.43098225,4.78717109 2.17973429,2.51670542 7.0188142,3.48029018 L7.0188142,3.48029018 Z M4.72631999,6.20877486 C6.79831076,6.22142491 6.92110347,6.00441114 7.09820416,5.54857317 C6.75839767,5.92153151 6.41750066,6.12524091 4.67179392,6.08859939 C3.44561159,6.06308119 3.15858635,5.54857317 2.149854,5.98063777 C2.91321902,5.71694968 3.55400943,6.20135931 4.72631999,6.20877486 L4.72631999,6.20877486 Z" id="SvgjsPath3288" fill="#000000"></path>
                                    </g>
                                </g>
                                <g id="svga-group-facehighlight-single" transform="translate(12.650049, 7.633650)" sketch:type="MSShapeGroup">
                                    <path d="M18.1026562,21.3685498 C18.1102898,26.3025051 14.1130925,30.3095171 9.1739027,30.3162784 C4.23558534,30.3243482 0.225519837,26.3308587 0.217886187,21.3958129 C0.210252537,16.4622938 4.20744988,12.4395782 9.14642156,12.4317265 C14.084957,12.4240928 18.0954587,16.4339402 18.1026562,21.3685498 L18.1026562,21.3685498 Z" id="SvgjsPath2885" fill="url(#radialGradient-10)"></path>
                                    <path d="M17.3392912,8.28774496 C17.3392912,12.8049029 13.6775382,16.4666559 9.16059834,16.4666559 C4.64344036,16.4666559 0.981469311,12.8049029 0.981469311,8.28774496 C0.981469311,3.77058699 4.64344036,0.108834041 9.16059834,0.108834041 C13.6775382,0.108834041 17.3392912,3.77058699 17.3392912,8.28774496 L17.3392912,8.28774496 Z" id="SvgjsPath2889" fill="url(#radialGradient-11)"></path>
                                </g>
                                <g id="svga-group-eyebrows-left" transform="translate(11.777632, 18.756969)" fill="#2A232B" sketch:type="MSShapeGroup">
                                    <path d="M-1.33226763e-15,1.56795175 C2.17101011,-0.607420451 3.65564603,0.277864867 6.67159216,0.856059343 C6.85589029,0.891392238 8.05001128,1.19172185 7.82972595,1.61266313 C7.72438158,1.81419149 7.38566561,1.79020002 7.19656919,1.78671035 C4.21115765,1.73087566 2.75945549,-0.393242037 -1.33226763e-15,1.56795175 L-1.33226763e-15,1.56795175 Z" id="SvgjsPath2910"></path>
                                </g>
                                <g id="svga-group-eyebrows-right" transform="translate(23.773368, 18.756969)" fill="#2A232B" sketch:type="MSShapeGroup">
                                    <path d="M8.06985878,1.56795175 C5.89906676,-0.607420451 4.41421275,0.277864867 1.39826661,0.856059343 C1.21375038,0.891392238 0.0198474905,1.19172185 0.23991472,1.61266313 C0.345259093,1.81419149 0.683975057,1.79020002 0.873071478,1.78671035 C3.85848302,1.73087566 5.31040328,-0.393242037 8.06985878,1.56795175 L8.06985878,1.56795175 Z" id="SvgjsPath2911"></path>
                                </g>
                                <g id="svga-group-nose-single" transform="translate(19.629386, 23.555263)" sketch:type="MSShapeGroup">
                                    <path d="M1.98125938,0.217886187 C1.98125938,0.217886187 1.78780088,4.67899136 1.8144096,5.65871584 C1.82204325,5.93679881 2.35727118,6.66570335 2.32084776,7.19722351 C2.32084776,7.19722351 1.27656442,7.12110511 0.936976035,7.00136585 C0.581684145,6.87530157 0.0316251222,6.62971614 0.249075101,5.94356004 C0.558783194,4.96754334 1.98125938,0.217886187 1.98125938,0.217886187 L1.98125938,0.217886187 Z" id="SvgjsPath3465" fill="#E1AC8F"></path>
                                    <path d="M1.88398487,6.6735551 C1.88398487,6.6735551 1.45104785,6.51979158 1.17754507,6.52764333 C0.928469968,6.53527698 0.892700864,6.36929962 0.917782857,6.27507856 C0.943082955,6.1806394 1.02836173,6.12218745 1.26893077,6.18631012 C1.5094998,6.25043278 1.88398487,6.6735551 1.88398487,6.6735551 L1.88398487,6.6735551 Z M2.52848305,6.67399131 C2.52848305,6.67399131 2.96032954,6.53156921 3.23492285,6.52851575 C3.48399795,6.52546229 3.52020326,6.37017203 3.49468506,6.27616908 C3.46938496,6.18129372 3.38388808,6.12240556 3.14353715,6.18652822 C2.90296812,6.2513052 2.52848305,6.67399131 2.52848305,6.67399131 L2.52848305,6.67399131 Z" id="SvgjsPath3466" fill="#C27B55"></path>
                                </g>
                                <g id="svga-group-beardwrap" transform="translate(0.000000, 4.143982)">
                                    <g id="svga-group-beard-single"></g>
                                </g>
                                <g id="svga-group-mustache-single" transform="translate(0.000000, 4.143982)"></g>
                                <g id="svga-group-hair-front" transform="translate(6.979337, 0.000000)" sketch:type="MSShapeGroup">
                                    <path d="M26.3869115,25.6499371 C25.3917016,22.9378102 26.5432922,18.7783433 24.5973658,15.7011098 C23.7109899,14.2262886 22.9404275,13.212758 23.0815409,11.4969315 L23.0012786,11.4698866 C22.8132727,11.7647636 22.5663786,12.0849407 22.4025823,12.2899587 C22.4957128,12.0520069 22.6475134,11.6875547 22.7849191,11.4125251 L22.7125085,11.3649784 C22.1487089,12.0352129 21.6645174,12.3789453 20.9984268,12.564552 C21.718171,12.0585501 22.5140336,11.178063 22.8623461,10.6899456 L22.8032399,10.628004 C20.3345174,12.2164576 17.5329678,12.2380499 15.0614099,12.2574612 C12.8308573,12.2740371 11.4454589,12.223655 9.83715785,11.28886 C8.67662491,11.673596 7.76276793,11.6245225 6.75839767,10.9322595 C3.61464242,17.0276201 5.0113823,13.9763411 3.13197762,25.2756701 C2.04058375,23.8209145 1.72346011,22.8957161 1.46522463,21.5096633 C1.39695799,21.0675659 1.33021807,20.3855538 1.37165789,19.9360408 L1.35791732,19.9218641 C0.386917013,17.7909851 -0.0713201032,16.577671 0.159434237,12.3510279 C0.330646105,10.5974694 0.711892407,9.2809919 1.81135614,7.90213658 C1.66631678,7.15294833 1.65235811,6.39765317 1.75094125,5.67529176 C1.17514592,4.62250235 0.778850424,3.53896023 0.624432586,3.15182511 C1.42880121,3.76753353 1.49532302,3.80308453 2.16642992,4.01486379 C2.31997535,3.59239578 2.54375035,3.17276312 2.68704487,2.95378642 C2.75182184,3.44190382 2.80329446,3.77167751 2.94942433,4.24605434 C2.99915211,4.25805008 3.23579526,4.32217274 3.31147745,4.34245644 C3.2680747,4.05368636 3.22837972,3.91977032 3.23448664,3.66088053 C3.35902419,3.94485232 3.46415046,4.01071981 3.82554927,4.45172669 C4.22555254,4.53569684 4.12958665,4.5232649 4.24954401,4.5232649 C3.66742366,3.61093465 3.27461783,2.80351256 3.17494417,1.5755854 C3.97167914,2.02946043 5.08641018,2.28878643 6.25043278,2.28878643 C8.98524249,2.28878643 11.7835205,0.235988843 15.6657769,0.235988843 C19.0300356,0.235988843 21.9408555,2.10252537 23.2302881,4.22795169 C23.2289794,3.6796375 23.2056423,3.22598057 23.4034629,2.66239908 C23.4034629,2.66239908 23.4263638,3.47047548 23.4263638,4.10014257 L23.5127331,4.10821243 C23.6479578,3.38825016 23.9332382,2.77450469 24.4043435,2.19478348 C23.9860194,3.31976542 24.1452356,2.7191062 23.6771838,4.09272702 L23.753084,4.13351253 C24.0651913,3.73241874 24.3208095,3.44888316 25.0658538,3.07308946 C24.5275724,3.61246138 24.1160096,3.92151516 23.8614819,4.30297956 L23.9271313,4.35946857 C24.2446911,4.07157091 24.5751191,3.96251876 24.9112178,4.22577064 C24.3701011,4.02904057 24.0505783,4.37386346 23.6793648,4.80919962 C25.1229971,5.0471514 25.9062096,5.88009169 26.921267,6.9935141 C29.2576001,9.6875383 29.8728724,12.317658 28.6056864,16.0461508 C29.1367704,17.1940337 29.0549813,19.7811868 27.8695844,21.8664819 C27.8691482,23.090047 27.032064,24.5997649 26.3869115,25.6499371 L26.3869115,25.6499371 Z" id="SvgjsPath3557" fill="#2A232B"></path>
                                    <path d="M6.60834192,10.768027 C6.68664136,10.8408738 6.7649408,10.9137206 6.84258593,10.9870037 C6.81445047,10.9684648 6.78631502,10.9512346 6.75796146,10.9318233 C3.61420621,17.0271839 5.01094609,13.9759049 3.13154141,25.2752339 C2.04014754,23.8204783 1.7230239,22.8952799 1.46478842,21.5092271 C1.39652178,21.0671297 1.32978186,20.3851176 1.37122168,19.9356046 L1.35748111,19.9214279 C0.386480804,17.7905489 -0.0717563118,16.5772348 0.158998028,12.3505917 C0.330209897,10.5970332 0.711456198,9.2805557 1.81091993,7.90170037 C1.66827972,7.16494407 1.65388484,6.42251706 1.74701537,5.71106087 C1.87722363,5.90168402 2.01375692,6.08729077 2.15334367,6.27049837 C2.24734662,6.84280403 2.32695468,7.40093291 2.18104291,7.85175448 C0.100546078,14.2810328 1.30862575,17.230239 2.61725149,21.8104291 C2.07984252,18.3358097 1.05955065,13.9183253 3.84277951,11.3414231 C2.65389302,14.1977169 2.98213997,15.4928202 3.27156437,17.4483433 C3.471566,14.8489764 4.40461616,12.4310722 6.60834192,10.768027 L6.60834192,10.768027 Z M26.9210489,6.99242358 C26.8390417,6.90256461 26.7592155,6.81532289 26.6798255,6.7291717 C26.5965097,6.78478829 26.5110128,6.8358247 26.4270427,6.88991456 C29.6890104,13.5772102 26.5565966,12.9351112 27.3031676,15.9213952 C28.1753667,18.1024381 27.0449321,19.4112819 27.0449321,21.5923248 C27.0449321,18.3207605 26.8964031,16.0439698 25.0907177,13.4842978 C24.4808981,12.6199505 24.3096862,9.68426674 23.8987777,8.2336551 C18.8383219,11.3414231 11.3418594,11.991592 3.4713479,5.71062466 C7.17912085,7.0192504 14.7362164,6.00506545 17.3303489,4.33307795 C14.3732909,4.86983261 8.20006704,4.90189395 5.42403562,3.75924556 C12.0762165,3.24233839 11.995736,1.10709738 17.6664476,0.705785486 C14.9401439,-0.312107241 8.98502438,2.28791401 6.25043278,2.28791401 C5.08662828,2.28791401 3.97189725,2.02880612 3.17494417,1.57471298 C3.27461783,2.80264014 3.66742366,3.61028033 4.24954401,4.52239248 C4.12936855,4.52239248 4.22555254,4.53482442 3.82554927,4.45085427 C3.46393235,4.00984739 3.35880608,3.94376179 3.23448664,3.66000811 C3.22816161,3.9188979 3.2680747,4.05281394 3.31147745,4.34158402 C3.23579526,4.32130032 2.998934,4.25717766 2.94942433,4.24518192 C2.80329446,3.77080509 2.75182184,3.4410314 2.68704487,2.952914 C2.54396845,3.17189071 2.31997535,3.59152336 2.16642992,4.01399138 C1.49510492,3.80221211 1.42880121,3.76666111 0.624432586,3.1509527 C0.778850424,3.53808781 1.17514592,4.62184804 1.75094125,5.67441934 C1.74941452,5.68641508 1.74897831,5.69862892 1.74745158,5.71062466 C3.12259914,7.72481779 5.05587557,9.30302044 6.84302214,10.9870037 C7.81445865,11.6247406 8.70955866,11.6622546 9.83737595,11.2884238 C11.445677,12.2232188 12.8312936,12.2736009 15.061628,12.257025 C17.5331859,12.2378318 20.3347355,12.2160214 22.803458,10.6275678 L22.8625642,10.6895094 C22.5142517,11.1776268 21.7183891,12.0581138 20.998645,12.5641158 C21.6649536,12.3782909 22.148927,12.0345586 22.7127266,11.3645422 L22.7851372,11.4120889 C22.6477315,11.6873365 22.4959309,12.0515707 22.4028004,12.2895225 C22.5665967,12.0845045 22.8134908,11.7643274 23.0014967,11.4694504 L23.081759,11.4964953 C22.9408637,13.2125399 23.711208,14.2258524 24.5975839,15.7006736 C26.5435103,18.7779071 25.3921378,22.9375921 26.3871296,25.6495009 C27.0322821,24.5993287 27.8693663,23.0898289 27.8693663,21.8649552 C29.0547632,19.7796601 29.1365523,17.192507 28.6054683,16.0446241 C29.8726542,12.3165674 29.257382,9.68644778 26.9210489,6.99242358 L26.9210489,6.99242358 Z M27.0809193,12.5865805 C27.0089449,10.5093553 25.6342336,7.8729106 25.6342336,7.8729106 C24.9916983,6.73789587 24.4174297,6.19634291 23.4540631,5.97649379 C26.164227,6.11150034 27.2285759,10.159516 27.1114539,12.2742552 C27.1003306,12.4705491 27.0809193,12.5865805 27.0809193,12.5865805 L27.0809193,12.5865805 Z M20.9177283,3.81529837 C21.6337646,4.39611009 21.8047584,4.56186936 22.5090172,5.54028521 C18.8769264,-0.978633955 11.7492782,3.95466701 9.49538842,3.79545088 C11.786574,4.26895529 16.9669871,0.918219066 20.9177283,3.81529837 L20.9177283,3.81529837 Z M22.7633268,6.64890932 C18.409747,10.2580991 11.7621463,8.72918805 6.32502445,7.02513922 C11.7398997,9.50520312 18.6337401,10.8471988 22.7633268,6.64890932 L22.7633268,6.64890932 Z M5.64213991,10.5747866 C4.21595595,11.3217938 3.54484905,13.2029433 3.48290743,14.4461377 C3.74921277,13.3732827 4.54834689,11.4048915 5.64213991,10.5747866 L5.64213991,10.5747866 Z M3.84277951,9.53879118 C1.80154145,10.7817675 1.40568216,13.6328268 1.60721052,16.0273938 C1.82182514,13.8153801 2.22051979,10.929206 3.84277951,9.53879118 L3.84277951,9.53879118 Z M18.5528234,6.83538849 C18.3334105,6.88228091 16.9696044,7.06919629 16.2252144,7.09602311 C15.6448389,7.12982928 13.3817888,7.16756132 11.3416412,7.08555411 C13.4474382,7.53681189 14.712225,7.62078204 16.2481154,7.53157738 C18.0160688,7.46767283 19.5981973,7.11761544 20.9092222,6.04934062 C19.9855505,6.55774172 19.5918723,6.63015235 18.5528234,6.83538849 L18.5528234,6.83538849 Z M25.8691319,12.6249669 C25.8691319,12.6249669 25.8132972,12.5287829 25.7408866,12.384616 C25.5421935,12.0515707 25.3166737,11.1455655 24.4457833,8.29821397 C25.0926806,13.5752473 26.1507045,12.6127531 26.6248632,15.3392748 C26.6250814,14.3586779 26.5565966,13.8559475 25.8691319,12.6249669 L25.8691319,12.6249669 Z" id="SvgjsPath3558" fill="#1B141C"></path>
                                    <path d="M27.4490794,19.003645 C27.5284693,18.2956785 27.496408,18.6202177 27.5051322,18.2162885 C27.5718721,16.8544453 26.7579069,15.7126693 27.2534398,14.0751423 C27.6578052,12.8858196 27.8913949,12.6993405 27.7142942,10.6288764 C27.6883398,10.3300735 27.6109127,9.58764654 27.4739433,9.32068689 C27.6606405,9.64544418 27.7840876,10.2465396 27.8501732,10.6149177 C28.2181151,12.696287 27.9086251,13.0123201 27.5184365,14.1628203 C26.9971673,15.9011115 27.9976117,16.6679661 27.4490794,19.003645 L27.4490794,19.003645 Z M23.8987777,8.2336551 C24.1424002,14.8574824 25.4857045,13.3189748 26.67241,17.3399455 C25.8667327,12.5970495 25.1214704,16.5292518 23.8987777,8.2336551 L23.8987777,8.2336551 Z M3.57014914,11.6107819 C1.56577071,14.1327219 1.76817149,15.9508392 2.2615234,19.6806407 C2.21703012,15.9052554 1.75683007,14.4723102 3.57014914,11.6107819 L3.57014914,11.6107819 Z M2.13131513,8.00748095 C0.981033102,11.5667249 0.729122646,13.173063 1.28136271,17.0119166 C1.1790718,13.1632483 1.20349948,12.3137321 2.13131513,8.00748095 L2.13131513,8.00748095 Z M6.53265973,10.8269151 C4.43231541,12.3359787 3.33590513,15.0965247 3.27156437,17.4483433 C3.59479493,15.2007786 4.80091166,12.365859 6.53265973,10.8269151 L6.53265973,10.8269151 Z M21.1244911,9.50803847 C18.4961163,10.4757672 14.2177825,10.7348751 11.094311,9.79637234 C8.66004899,9.08644288 4.8591455,6.70081814 2.81463588,5.20069682 C4.66808615,6.67617235 7.9337617,8.86637565 10.2140421,9.73203158 C12.583309,10.6173169 16.2963164,10.9462182 19.1739844,10.2216757 C21.1910129,9.71480134 22.2363868,9.23584432 23.8987777,8.2338732 C23.1587499,8.63954718 22.0686646,9.21316147 21.1244911,9.50803847 L21.1244911,9.50803847 Z M15.4446192,1.61528038 C18.0982941,1.11691208 21.2263458,2.82750403 22.872597,4.84976702 C21.1502274,2.38126265 18.3279579,1.15311739 16.6431023,1.12389141 C13.8777579,1.07590847 11.0171021,3.44517538 5.42403562,3.64997531 C10.6831844,3.88160207 13.2112312,1.9768973 15.4446192,1.61528038 L15.4446192,1.61528038 Z M17.5288238,4.41334033 C13.7580187,5.75315499 10.8461083,6.0737683 6.88380764,6.28467515 C10.9760985,6.53658561 13.9017494,6.1396358 17.5288238,4.41334033 L17.5288238,4.41334033 Z M21.4911244,5.17735967 C19.1656965,6.27376994 18.1475857,6.45348787 13.3477645,6.74574762 C16.3569494,6.86723171 19.1680956,6.71085094 21.4911244,5.17735967 L21.4911244,5.17735967 Z M13.7946602,8.51108376 C16.1161623,8.78087876 20.1827168,8.48818281 22.218066,6.37627895 C19.7600307,8.44696109 15.2127743,8.37280564 11.6661804,8.23191026 C13.0236615,8.44368953 12.7787304,8.40835664 13.7946602,8.51108376 L13.7946602,8.51108376 Z M23.7447961,6.4853311 C25.4087137,7.09798605 25.8143877,10.0170939 26.4710997,12.374147 C26.1773132,10.284926 25.6754553,6.93855182 23.7447961,6.4853311 L23.7447961,6.4853311 Z" id="SvgjsPath3559" fill="#3A353A"></path>
                                    <path d="M26.9531102,6.9629795 C26.0047927,5.92284013 25.1533136,5.00658401 23.7622444,4.7775745 C24.2189548,4.24038363 24.5400043,4.0406001 25.1253962,4.37408156 C24.7786104,3.96600843 24.3801339,3.88858141 23.8974691,4.32609862 C24.1746796,3.91060994 24.6538548,3.57145777 25.2715261,2.92368802 C24.3487269,3.35662504 24.0712982,3.65215636 23.7186236,4.10581328 C24.2169919,2.64386022 24.0021591,3.42358306 24.5299715,1.97929644 C23.9783858,2.59784021 23.6257111,3.27047385 23.4702028,4.09927015 C23.4702028,2.81180052 23.4298535,2.9782141 23.4549355,2.41550503 C23.1524248,3.08922918 23.1868853,3.68269096 23.1868853,4.0709166 C22.6998584,3.2678566 21.9842582,2.58780742 21.2128234,2.03164147 C15.7484385,-1.95726791 10.2991027,1.71408162 7.34575253,2.15814196 C6.14857807,2.36032464 4.35467028,2.23186121 3.12543449,1.49510492 C3.21224,2.75225805 3.60155616,3.58716128 4.17015405,4.47877162 C4.16993594,4.47877162 3.84954074,4.41115929 3.84954074,4.41115929 C3.40918818,3.88029345 3.36665784,3.89730558 3.20395204,3.46676771 C3.16229412,3.85128557 3.22598057,4.06437347 3.25847811,4.28247776 C3.14986217,4.2541242 3.0497523,4.22402581 2.9836667,4.2083223 C2.82161522,3.68181854 2.77472279,3.28137906 2.71539843,2.83644631 C2.58148239,3.00765818 2.29620198,3.53001795 2.1396031,3.95968341 C1.48550833,3.75292054 1.4386159,3.71998679 0.519088213,3.01529183 C0.628140359,3.23339612 1.02269102,4.42446365 1.70557556,5.68270731 C1.60306654,6.45348787 1.63403735,7.2225236 1.76446372,7.88992273 C0.668489653,9.26659702 0.287897664,10.5826383 0.115595274,12.3479744 C-0.111451293,16.5048241 0.304691695,17.7157392 1.321712,19.9423659 C1.32389305,19.9445469 1.32389305,19.948909 1.32607409,19.95109 C1.28746963,20.3809736 1.3520285,21.0638581 1.42203998,21.5170789 C1.67918494,22.8981152 1.99456374,23.849268 3.14724492,25.3666196 C3.15160701,25.3709817 3.15378805,25.3775248 3.15815014,25.3818869 C3.89861421,20.9395387 3.8222777,20.8307046 3.98040331,19.7351668 C4.75947184,14.1272693 4.72566568,14.9647897 6.77431929,10.9957278 C7.60595095,11.5689059 8.52678727,11.7704343 9.83214145,11.3359705 C10.7791503,11.8864658 11.7462247,12.3065346 14.4254178,12.3065346 C17.0799651,12.2733828 20.1345157,12.3963936 22.8267951,10.6642093 C22.4189401,11.2360788 21.4924331,12.2245274 20.7635285,12.6664067 C21.5223134,12.505882 22.0667017,12.2003178 22.7460965,11.3926777 C22.5373707,11.8103474 22.2917853,12.4426317 22.2728102,12.5180958 C22.3055259,12.478837 22.7417344,11.9575678 23.0383563,11.4930056 C22.8959342,13.2258442 23.6695501,14.2404654 24.5607242,15.7242289 C26.5140663,18.81324 25.3264884,23.0353028 26.377533,25.7483021 C27.0514752,24.6586531 27.9129872,23.1122936 27.9129872,21.8769509 C29.0493105,19.8952553 29.2120163,17.2725512 28.6523607,16.0426611 C29.7902108,12.633473 29.5603289,9.96911094 26.9531102,6.9629795 L26.9531102,6.9629795 Z M3.22554436,3.60635446 C3.33197926,3.90930132 3.35531642,3.90275819 3.76862405,4.39371095 C3.56360601,4.35118061 3.42729083,4.32130032 3.30406191,4.29338297 C3.25629707,4.06306484 3.22554436,3.84408813 3.22554436,3.60635446 L3.22554436,3.60635446 Z M2.67810259,3.02619704 C2.6986044,3.36033281 2.77821246,3.79872244 2.89402584,4.18433083 C2.26915705,4.02358796 2.50143812,4.07440626 2.28333382,4.00984739 C2.46283366,3.47025738 2.53044599,3.33372409 2.67810259,3.02619704 L2.67810259,3.02619704 Z M3.05324197,24.8846091 C2.13371428,23.225926 1.89227283,22.6619083 1.63774512,20.9827233 C1.61288123,20.7894829 1.5347999,20.2311359 1.53087402,19.9641763 C0.206980972,16.9368887 -0.29073302,11.188532 1.79478021,8.0251474 L1.79478021,8.02296635 C1.79478021,8.02296635 1.88180382,7.88686927 2.03905702,7.69144783 C1.98082317,7.39831566 1.92324364,6.77977189 1.94309113,6.10364859 C2.10448831,6.39154625 2.28769591,6.6532714 2.45127413,6.90409134 C2.45127413,6.90343703 2.57995566,7.07443079 2.57995566,7.07857477 C3.57254829,8.34139862 4.48924063,9.39135268 6.70648885,10.9499259 C4.04452598,15.2627202 4.20963092,13.8060016 3.05324197,24.8846091 L3.05324197,24.8846091 Z M28.7110308,14.657917 C28.6333857,15.1722069 28.4660997,15.8755933 28.3753683,16.182466 C28.9816982,17.7240271 28.3193155,20.6355013 27.7077511,21.9360572 C27.4403552,23.4830709 27.1526756,23.7945239 26.3969443,25.3363031 C25.8566999,22.9371559 26.9603076,18.6799782 24.9225593,15.5041616 C23.6010654,13.3135221 23.0344304,13.0264969 23.3456652,10.3198226 C23.3456652,10.3198226 23.3589696,10.1726022 23.3631136,10.134434 C20.6088926,11.8184172 17.5667739,12.0088223 13.5549636,11.9228892 C12.3953031,11.9228892 10.82866,11.7771955 9.85155273,11.1726104 C7.87094766,11.7359738 7.1361543,10.8591946 5.48728586,9.57172492 C3.70690053,8.05873546 2.49729413,6.73767776 1.00524268,3.6240209 C1.84341747,4.30407008 3.52151189,4.64671192 4.57997201,4.8235945 C3.86611667,3.87200548 3.4460478,3.00264178 3.25607896,1.77013443 C4.0150819,2.27613638 5.83407169,2.77406848 7.43713823,2.59674969 C10.3889617,2.31953914 14.522038,-0.711238094 19.6008145,1.58692682 C21.9572133,2.62662998 23.152861,4.08989167 23.4329069,4.85849119 C23.435088,4.85849119 23.437269,4.86067223 23.4416311,4.86067223 C23.4547174,4.86503432 23.4678036,4.86721536 23.4828528,4.86939641 C23.4865606,4.87332228 23.5552635,4.88902579 23.5613704,4.88902579 C25.0828659,5.39611827 25.1847206,5.49077553 26.6584513,7.20965545 C27.4868114,8.22580334 29.4807208,10.2543914 28.7110308,14.657917 L28.7110308,14.657917 Z" id="SvgjsPath3560" fill="#000000"></path>
                                </g>
                                <g id="svga-group-glasses-single" transform="translate(0.000000, 4.143982)"></g>
                            </g>
                        </g>
                    </g>
                </g>
            </g>
        </g>
    </g>   
</svg>