<?xml version="1.0" encoding="utf-8"?>
<!-- Generator: Adobe Illustrator 18.0.0, SVG Export Plug-In . SVG Version: 6.00 Build 0)  -->
<!DOCTYPE svg PUBLIC "-//W3C//DTD SVG 1.1//EN" "http://www.w3.org/Graphics/SVG/1.1/DTD/svg11.dtd">
<svg version="1.1" id="Capa_1" xmlns="http://www.w3.org/2000/svg" xmlns:xlink="http://www.w3.org/1999/xlink" x="0px" y="0px"
	 width="550px" height="550px" viewBox="0 0 550 550" enable-background="new 0 0 550 550" xml:space="preserve">
<g>
	<path d="M406.3,136.1c-14-72.8-65.9-121-131.3-121s-117.4,48.3-131.3,121c-0.4,0.1-0.9,0.2-1.5,0.3c-22,5.5-33.6,32.4-26.3,61.2
		c4.9,19.7,17.8,35.1,33,40.2c17.8,58.8,63.8,120,126,120s108.2-61,126-120c15.2-5.2,28.1-20.5,33-40.2c7.2-28.8-4.4-55.6-26.3-61
		C407.3,136.2,406.8,136.1,406.3,136.1z M414.6,192.6c-4,16.1-14.6,25.6-23,26.8l-6.6,0.9l-1.8,6.4c-15,55.1-57,110.8-108.2,110.8
		s-93.2-55.8-108.2-110.8l-1.8-6.4l-6.6-0.9c-8.4-1.1-18.9-10.8-23-26.8c-4.3-17.2,1.1-33.9,11.8-36.6c0.7-0.2,1.5-0.2,2.4-0.2
		c0.6,0,1.1,0,1.8,0.1l9.5,0.9l1.5-9.4c1.2-8.1,2.9-15.8,5.2-23.2c3.2-1,6.9-1.9,11-2.9c4.6-1.3,9.9-2.4,15.7-3.6
		c5.7-1.5,12-2.4,18.5-3.5c6.5-1.2,13.4-1.8,20.4-2.8c7.1-0.6,14.3-1.5,21.7-1.7c7.4-0.7,14.9-0.4,22.4-0.7c7.5,0.2,15,0.1,22.4,0.8
		c7.4,0.2,14.6,1.1,21.7,1.7c6.9,1,13.9,1.7,20.4,2.8s12.8,2,18.5,3.5c5.8,1.1,11.2,2.2,15.9,3.6c2.2,0.7,4.5,1.1,6.5,1.7
		c2.4,7.7,4.1,15.8,5.5,24.3l1.5,9.4l9.5-0.9c1.5-0.1,2.9-0.1,4.1,0.2C413.4,158.5,418.8,175.3,414.6,192.6z M275,35.3
		c43,0,79.2,25.2,98.9,65.9c-1.7-1.2-3.4-2.4-5.3-3.7c-5.4-3.9-11.6-7.2-18.5-10.5S335.8,81,328,78.4c-8-2.1-16.2-4.5-24.9-5.4
		c-8.5-1.6-17.4-1.6-26.2-2c-8.8,0.4-17.6,0.4-26.2,2.1c-8.6,1-16.9,3.2-24.9,5.4c-7.8,2.6-15.3,5.2-22.2,8.5s-13.1,6.6-18.5,10.5
		c-2.7,1.9-5.3,3.6-7.7,5.4c-1.3,1.1-2.6,2.2-3.8,3.4C193,62.7,230.3,35.3,275,35.3z"/>
	<path d="M395.2,310.8c-13,22.2-28,40.8-47.9,51c-41.1,21.1-71.7,38.1-71.7,38.1l-0.1-0.1v-0.4l-0.4,0.2l-0.4-0.2v0.4l-0.1,0.1
		c0,0-30.6-17-71.7-38.1c-19.9-10.2-34.9-28.9-47.9-51C94,335.6,51.6,392.3,51.6,442c0,52.3,0,102.9,0,102.9h223h0.9h223
		c0,0,0-50.6,0-102.9C498.4,392.2,456,335.4,395.2,310.8z"/>
</g>
</svg>
