<?xml version="1.0" encoding="utf-8"?>
<!-- Generator: Adobe Illustrator 17.1.0, SVG Export Plug-In . SVG Version: 6.00 Build 0)  -->
<!DOCTYPE svg PUBLIC "-//W3C//DTD SVG 1.1//EN" "http://www.w3.org/Graphics/SVG/1.1/DTD/svg11.dtd">
<svg version="1.1" id="Capa_1" xmlns="http://www.w3.org/2000/svg" xmlns:xlink="http://www.w3.org/1999/xlink" x="0px" y="0px"
	 width="550px" height="550px" viewBox="0 0 550 550" enable-background="new 0 0 550 550" xml:space="preserve">
<path d="M384.184,320.992c-12.096,21.056-25.984,38.864-44.464,48.608c-38.192,20.048-69.888,34.496-69.888,34.496L202.52,369.6
	c-18.704-9.856-34.944-28-48.384-49.504c-57.568,22.96-91.168,77.952-91.168,125.776V546h416.976c0,0,0-50.4,0-100.128
	C480.056,398.72,440.632,344.624,384.184,320.992z M145.064,142.016c-0.336,0.112-0.784,0.224-1.12,0.224
	c-8.624,2.128-15.792,7.728-20.832,16.016c-6.944,11.648-8.736,27.216-4.816,42.56c4.816,18.816,17.136,33.488,31.92,38.528
	c17.248,56,61.488,114.128,121.296,114.128s104.048-58.128,121.296-114.128c14.672-5.04,27.104-19.712,31.808-38.528
	c3.92-15.456,2.128-30.912-4.816-42.56c-4.928-8.288-12.32-14-20.832-16.016c-0.336-0.112-0.784-0.224-1.12-0.224
	C385.864,80.528,344.872,37.52,291.784,28.784c0.336-1.456,0.56-3.024,0.56-4.48c0-11.536-9.296-20.832-20.832-20.832
	s-20.832,9.296-20.832,20.832c0,1.568,0.224,3.024,0.56,4.48C197.928,37.632,157.048,80.528,145.064,142.016z M389.224,161.616
	c1.456-0.112,3.36-0.112,4.368,0.112c4.144,1.008,7.168,4.368,8.736,6.944c4.144,6.944,5.264,17.248,2.688,27.328
	c-3.808,15.12-13.776,24.08-21.728,25.2l-6.496,0.896L375,228.48c-14.336,52.192-54.544,105.056-103.6,105.056
	s-89.264-52.864-103.6-105.056l-1.792-6.384L159.4,221.2c-7.952-1.008-17.92-10.08-21.728-25.2
	c-2.576-10.192-1.568-20.384,2.576-27.328c1.568-2.576,4.256-5.824,8.4-6.944c0.672-0.112,1.344-0.224,2.24-0.224
	c0.56,0,1.12,0,1.68,0.112l4.928,0.224l5.152-3.696c102.48-67.872,205.968-3.808,218.176,4.256L389.224,161.616z M366.376,186.704
	c-1.792-1.568-3.696-3.248-5.824-4.928s-4.48-3.136-6.944-4.704s-4.928-3.472-7.728-5.04c-2.8-1.456-5.712-2.912-8.736-4.48
	c-5.936-3.248-12.768-5.6-19.824-8.064c-7.168-1.904-14.448-4.48-22.288-5.376c-7.728-1.568-15.68-1.792-23.632-2.352
	c-7.952,0.224-15.904,0.112-23.744,1.456c-7.84,0.672-15.232,2.912-22.512,4.592c-7.056,2.24-14,4.48-20.048,7.504
	c-6.16,2.8-11.872,5.712-16.8,9.184c-2.464,1.68-4.928,3.024-7.056,4.592c-2.128,1.792-4.032,3.36-5.936,4.928
	c-3.808,3.024-6.72,5.824-8.848,8.4c-4.48,5.04-6.944,7.952-6.944,7.952s3.472-1.68,9.408-4.816c2.912-1.792,6.608-3.36,10.64-5.152
	c4.032-1.904,8.624-3.808,13.888-5.712c5.04-2.128,10.752-3.584,16.688-5.376c5.936-1.904,12.432-2.688,18.928-4.256
	c6.72-1.008,13.552-2.016,20.496-2.352c6.944-0.784,14.112-0.56,21.28-0.672c7.168,0.448,14.224,0.56,21.28,1.568
	c7.056,0.672,13.776,2.016,20.496,3.136c6.384,1.904,12.992,2.8,18.816,4.928c5.936,1.904,11.648,3.584,16.688,5.824
	c5.152,1.904,9.856,3.92,13.888,5.936c4.144,1.904,7.84,3.472,10.64,5.264c5.824,3.136,9.296,4.928,9.296,4.928
	s-2.352-2.912-6.944-8.064C372.984,192.528,370.072,189.616,366.376,186.704z"/>
</svg>
