<?xml version="1.0" encoding="utf-8"?>
<!-- Generator: Adobe Illustrator 18.0.0, SVG Export Plug-In . SVG Version: 6.00 Build 0)  -->
<!DOCTYPE svg PUBLIC "-//W3C//DTD SVG 1.1//EN" "http://www.w3.org/Graphics/SVG/1.1/DTD/svg11.dtd">
<svg version="1.1" id="Capa_1" xmlns="http://www.w3.org/2000/svg" xmlns:xlink="http://www.w3.org/1999/xlink" x="0px" y="0px"
	 width="550px" height="550px" viewBox="0 0 550 550" enable-background="new 0 0 550 550" xml:space="preserve">
<path d="M156.8,240.3c16.8,54.6,60,111.2,118.3,111.2S376.6,295,393.4,240.3c14.4-4.9,26.4-19.2,31.1-37.5c3.8-15,2.2-30.2-4.7-41.5
	c-4.8-8.1-12-13.6-20.3-15.7c-0.3-0.1-0.8-0.2-1.1-0.2c-11.8-60-51.6-101.9-103.5-110.5c0.3-1.4,0.5-2.9,0.5-4.5
	c0-11.2-9.2-20.4-20.4-20.4s-20.4,9.2-20.4,20.4c0,1.5,0.2,2.9,0.5,4.5c-51.8,8.5-91.7,50.5-103.5,110.5c-0.3,0.1-0.8,0.2-1.1,0.2
	c-8.4,2.1-15.4,7.5-20.3,15.7c-6.8,11.3-8.5,26.5-4.7,41.5C130.3,221.2,142.4,235.4,156.8,240.3z M147.2,171.3
	c1.5-2.5,4.1-5.7,8.2-6.8c0.7-0.1,1.3-0.2,2.2-0.2c0.5,0,1.1,0,1.6,0.1l9.2,0.9l0.7-4.3c100-66.2,200.8-7.7,212.7,0.1v4.5l8.3-1.2
	c1.4-0.1,3.3-0.1,4.4,0.1c4.1,1,7,4.3,8.5,6.8c4,6.9,5.1,16.8,2.6,26.7c-3.7,14.7-13.4,23.4-21.2,24.5l-6.3,0.9l-1.6,6.2
	c-14.1,50.9-53.2,102.5-101.1,102.5s-87-51.6-101.1-102.5l-1.7-6.2l-6.3-0.9c-7.7-1-17.6-9.8-21.3-24.5
	C142.1,188.2,143,178.3,147.2,171.3z M388,320c-12.2,20.8-26.4,38.4-45,48c-38.5,19.7-67.4,35.8-67.4,35.8l-0.1-0.1v-0.4l-0.4,0.2
	l-0.4-0.2v0.4l-0.1,0.1c0,0-28.8-16-67.4-35.8c-18.8-9.6-32.8-27.2-45-48C104.9,343.2,65,396.7,65,443.2c0,49.2,0,96.7,0,96.7h209.7
	h0.8H485c0,0,0-47.7,0-96.7C485,396.6,445.1,343.2,388,320z"/>
</svg>
