<?xml version="1.0" encoding="utf-8"?>
<!-- Generator: Adobe Illustrator 18.0.0, SVG Export Plug-In . SVG Version: 6.00 Build 0)  -->
<!DOCTYPE svg PUBLIC "-//W3C//DTD SVG 1.1//EN" "http://www.w3.org/Graphics/SVG/1.1/DTD/svg11.dtd">
<svg version="1.1" id="Capa_1" xmlns="http://www.w3.org/2000/svg" xmlns:xlink="http://www.w3.org/1999/xlink" x="0px" y="0px"
	 width="550px" height="550px" viewBox="0 0 550 550" enable-background="new 0 0 550 550" xml:space="preserve">
<path d="M98.3,160.2c0,7.8,7.8,14.8,9.4,22.2c1.5,7.6-3.1,17-0.3,24.1c2.9,7.1,12.8,10.6,16.9,17.2c4,6.5,2.9,16.9,8.1,22.7
	c4.8,5.4,14.6,5.9,20.6,10.3c1.3,1.6,2.7,3,4.1,4.4c3.6,5.3,5.9,12.3,11.1,15.7c1.8,1.1,3.8,1.7,5.9,2.1
	c17.8,49.6,57.3,98.1,109.8,98.1c54.9,0,95.8-53.2,112.1-105.3c0.4-0.8,1-1.6,1.5-2.4c8.3-3.1,15.8-9.5,21.3-18
	c3.2-1.2,6.3-2.6,8.3-4.9c5.2-5.8,4-16.2,8.1-22.7c4.1-6.6,14-10.2,16.9-17.2c2.9-7.2-1.8-16.6-0.3-24.1s9.4-14.4,9.4-22.2
	s-7.8-14.8-9.4-22.2c-1.5-7.6,3.1-17,0.3-24.1c-2.9-7.1-12.8-10.6-16.9-17.2c-4-6.5-2.9-16.9-8.1-22.7c-5-5.7-15.6-5.9-21.5-11
	c-5.8-4.9-7.7-15.2-14.3-19.4c-6.4-4-16.6-1.5-23.6-4.8c-6.8-3.2-11.3-12.8-18.7-15.2c-7.2-2.5-16.5,2.5-24.2,0.8
	c-7.4-1.6-13.9-10-21.6-10.8c-7.5-0.8-15.6,5.9-23.4,5.9s-15.9-6.7-23.4-5.9c-7.7,0.8-14.2,9.2-21.6,10.8
	c-7.6,1.7-16.9-3.2-24.1-0.8c-7.4,2.5-11.9,12-18.7,15.2c-7.1,3.4-17.2,0.8-23.6,4.8c-6.6,4.1-8.5,14.6-14.3,19.4
	c-5.9,5-16.5,5.3-21.5,11c-5.2,5.8-4,16.2-8.1,22.7c-4.1,6.6-14,10.2-16.9,17.2c-2.9,7.2,1.8,16.6,0.3,24.1
	C106.3,145.5,98.3,152.4,98.3,160.2z M380.1,259.7c-1.9,6.8-4.3,13.8-7.1,20.5c-17,41.4-50.1,78.2-89.3,78.2
	c-37.5,0-69.4-33.7-87-73c-3.8-8.4-6.9-17-9.3-25.8l-1.7-5.9l-6.2-0.8c-7.4-1-16.7-9.4-20.2-23.6c-3.7-14.9,1-30,10.2-32.4
	c0.6-0.1,1.2-0.2,2-0.2c0.6,0,1,0,1.6,0.1l8.8,0.8l1.3-8.7c2.5-16.2,7.3-30.9,13.9-43.8c2.4-0.6,4.7-0.8,6.9-0.4
	c7.8,1.5,14.6,14.3,23.4,15.3c8.1,0.9,17.6-10,26.3-9.5c8.3,0.4,16.5,12.3,25.2,12.3c8.7,0,16.9-11.9,25.2-12.3
	c8.7-0.4,18.3,10.4,26.3,9.5c8.8-1,15.5-13.9,23.4-15.3c5.7-1.1,12.2,2.2,18.1,4.3c5.6,12,9.7,25.3,11.9,40l1.3,8.7l8.8-0.8
	c1.3-0.1,2.6-0.1,3.6,0.1c9.2,2.4,14,17.5,10.2,32.3c-3.6,14.2-12.9,22.6-20.2,23.6l-6.2,0.8L380.1,259.7z M388.6,341.5
	c-11.4,19.4-24.5,35.7-42,44.7c-36,18.4-62.7,33.4-62.7,33.4l-0.1-0.1v-0.3l-0.3,0.2l-0.3-0.2v0.3l-0.1,0.1c0,0-26.8-14.9-62.7-33.4
	c-17.5-9-30.6-25.3-42-44.7c-53.3,21.6-90.4,71.5-90.4,114.8c0,45.8,0,90.2,0,90.2H283h0.8H479c0,0,0-44.4,0-90.2
	C479,412.8,441.8,363.1,388.6,341.5z"/>
</svg>
