<?xml version="1.0" encoding="utf-8"?>
<!-- Generator: Adobe Illustrator 18.0.0, SVG Export Plug-In . SVG Version: 6.00 Build 0)  -->
<!DOCTYPE svg PUBLIC "-//W3C//DTD SVG 1.1//EN" "http://www.w3.org/Graphics/SVG/1.1/DTD/svg11.dtd">
<svg version="1.1" id="Capa_1" xmlns="http://www.w3.org/2000/svg" xmlns:xlink="http://www.w3.org/1999/xlink" x="0px" y="0px"
	 width="550px" height="550px" viewBox="0 0 550 550" enable-background="new 0 0 550 550" xml:space="preserve">
<g>
	<path d="M169.2,127.6c0.7-0.9,1.3-1.7,2.1-2.6c1.7-1.6,3.4-3.1,5.3-4.9c3.8-3.6,8.2-7.7,13.4-11.2c1.3-0.9,2.7-1.9,4.1-2.9
		c0.7-0.4,1.3-1,2.1-1.5c0.7-0.4,1.3-0.9,2-1.5c3-1.7,6.2-3.4,9.4-5.2c2.6-1.6,5.5-2.8,8.3-4c4.1-1.8,8.5-3.6,13-5.4
		c0.3-0.1,0.8-0.2,1.1-0.3c7.5-2,15-4.8,23.2-5.6c8.4-1.7,17.1-1.8,25.9-2.4c0.1,0,0.2,0,0.3,0c8.6,0.6,17.1,0.7,25.5,2.4
		c1.6,0.1,3.1,0.4,4.7,0.8c1.2,0.2,2.6,0.6,3.8,0.8c3.2,0.8,6.4,1.7,9.5,2.6c2.1,0.7,4.3,1.2,6.4,1.8c7.4,3,14.7,5.5,20.9,9.2
		c0.1,0.1,0.3,0.1,0.4,0.2c3.2,1.8,6.4,3.5,9.4,5.2c2.8,2,5.6,3.9,8.2,5.8c2.7,1.8,5.2,3.7,7.4,5.6c2.1,1.9,4.1,3.7,5.9,5.5
		c0.6,0.4,0.9,0.9,1.5,1.3c-5.3-12.3-14.9-24.6-28.2-34.5c-2.7-2-5.5-3.7-8.3-5.3c-5.6-4.4-11.4-8.2-17.7-11.4
		c0.2-1.6,0.3-3.1,0.3-4.8c0-27.2-27.9-49.3-62.4-49.3s-62.4,22.1-62.4,49.3c0,5.2,1,10.1,2.9,14.8
		C191.6,92,178.6,108.2,169.2,127.6z"/>
	<g>
		<path d="M155.9,167.6c-0.3,0.1-0.7,0.1-1,0.2c-20.3,5.2-30.9,29.8-24.3,56.2c4.5,18,16.2,32,30.2,36.8
			c16.4,53.8,58.4,109.4,115.2,109.4s98.9-55.8,115.2-109.4c14-4.8,25.8-18.8,30.2-36.8c6.6-26.4-4-51.1-24.3-56.2
			c-0.3-0.1-0.7-0.2-1.1-0.2c-2-10.5-5-20.4-8.7-29.6c-0.2-2.4-0.6-4.7-1.1-7.1c-0.9-0.6-1.7-1.1-2.7-1.8l0,0c-1.9-1-3.9-2.2-6-3.4
			c-2.8-1.6-5.9-3.4-9.2-5c-1.8-0.9-3.5-1.8-5.5-2.7c-2.7-1.2-5.5-2.6-8.5-4c-1.2-0.4-2.5-0.9-3.7-1.3c-1.9-0.7-3.7-1.5-5.7-2.1
			c-6.3-2.8-13.4-4-20.4-6.4c-1.2-0.2-2.6-0.6-3.8-0.8c-3.7-0.8-7.5-1.5-11.3-2c-2.4-0.4-4.7-0.9-7.2-1.1
			c-7.6-1.3-15.5-1.2-23.3-1.6c-2.8,0.1-5.5,0.2-8.3,0.3c-5,0.1-10.1,0.4-15,1.2c-7.7,0.7-15,2.6-22.3,3.9c-1.2,0.4-2.4,0.8-3.6,1.1
			c-5.8,1.7-11.6,3-16.8,5.3c-3.2,1.2-6.3,2.4-9.3,3.6c-2,1-3.9,1.8-5.8,2.8c-0.9,0.4-1.8,0.8-2.6,1.2c-5.6,2.5-10.3,5.3-14.6,7.6
			l0,0c-0.7,0.3-1.2,0.7-1.8,1c-1.5,0.8-2.9,1.7-4.3,2.4c-1.8,1.2-3.5,2.4-5,3.4c-1.6,1-2.9,1.9-4.1,2.7
			C161.5,145.2,158.2,156,155.9,167.6z M236.9,150c11.4-11.4,25.9-18.9,39.6-24.8c5.5,11.2,14.7,22.3,26.9,31.2
			c25.8,19,56.2,22.4,72.7,9.4c0.9,4,1.8,8.1,2.4,12.3l1.3,9l9-0.9c1.3-0.1,2.6-0.1,3.6,0.1c9.4,2.4,14.2,17.8,10.4,33
			c-3.6,14.6-13.1,23.1-20.6,24.1l-6.3,0.9l-1.6,6c-13.7,50.1-51.7,100.8-98.3,100.8s-84.7-50.7-98.3-100.8l-1.7-6.2l-6.3-1
			c-7.5-1-17-9.6-20.6-24.1c-3.8-15.2,1.1-30.6,10.4-33c0.6-0.1,1.2-0.2,2-0.2c0.6,0,1,0,1.6,0.1l1.8,0.2
			c1.8,13.4,7.3,25.8,16.7,35.2C210,249.9,200.1,186.8,236.9,150z"/>
		<path d="M385.3,329.2c-12,20.3-25.8,37.4-44,46.8c-37.7,19.3-65.7,34.9-65.7,34.9l-0.1-0.1v-0.4l-0.4,0.2l-0.4-0.2v0.4l-0.1,0.1
			c0,0-28-15.7-65.7-34.9c-18.3-9.4-32-26.4-44-46.8c-55.8,22.7-94.8,74.8-94.8,120.3c0,47.9,0,94.4,0,94.4h204.7h0.8h204.6
			c0,0,0-46.5,0-94.4C480.1,404,441.1,351.9,385.3,329.2z"/>
	</g>
</g>
</svg>
