<?xml version="1.0" encoding="utf-8"?>
<!-- Generator: Adobe Illustrator 18.0.0, SVG Export Plug-In . SVG Version: 6.00 Build 0)  -->
<!DOCTYPE svg PUBLIC "-//W3C//DTD SVG 1.1//EN" "http://www.w3.org/Graphics/SVG/1.1/DTD/svg11.dtd">
<svg version="1.1" id="Capa_1" xmlns="http://www.w3.org/2000/svg" xmlns:xlink="http://www.w3.org/1999/xlink" x="0px" y="0px"
	 width="550px" height="550px" viewBox="0 0 550 550" enable-background="new 0 0 550 550" xml:space="preserve">
<path d="M391.1,223.3c12.9-4.5,23.6-17.4,27.8-33.9c5.7-22.8-2.7-44-19.3-50.4c1.5-6,2.2-12.3,2.2-18.7c0-54.1-54-98-120.7-98
	s-120.7,43.9-120.7,98c0,7.7,1.2,15.2,3.2,22.4c-11.9,9-17.2,27.2-12.4,46.7c4.1,16.6,15,29.5,27.8,33.9
	c15,49.4,53.6,100.7,106,100.7S376.1,272.7,391.1,223.3z M285.1,306.4c-42.8,0-77.8-46.6-90.4-92.7l-1.6-5.6l-5.7-0.8
	c-6.9-0.9-15.7-8.8-19-22.2c-2.4-9.4-1-18.9,2.7-24.8c1.8-2.8,4.1-4.9,6.9-5.6c0.6-0.1,1.1-0.2,1.9-0.2c0.4,0,1,0,1.5,0.1l8.3,0.8
	l1.2-8.2c2.6-17.1,8-32.6,15.5-45.7c14,15.8,42.1,26.7,74.5,26.7c36.5,0,67.5-13.8,79.1-32.9c9.6,14.4,16.5,32,19.5,52.1l1.2,8.2
	l8.3-0.8c1.2-0.1,2.5-0.1,3.4,0.1c0.6,0.1,1,0.4,1.6,0.7c7.6,3.4,11.3,16.6,8.1,29.7c-3.4,13.3-12.1,21.3-19,22.2l-5.8,0.8l-1.6,5.6
	C363.1,259.7,327.9,306.4,285.1,306.4z M320.6,334.3l-24.2,11.9c-2.1-4.6-5.9-7.7-10.4-7.7c-4.7,0-8.6,3.5-10.8,8.4l-25.5-12.5
	c-11.6-5.7-21.2,1-21.2,15.1c0,4.6,1.1,8.5,3,11.6c3,5,8,7.7,13.9,7.4c1.6-0.1,3.2-0.3,5-1l24.1-8.2c1.7,6,6.2,10.4,11.4,10.4
	c5.2,0,9.5-4.1,11.3-9.9l22.6,7.6c3,1,5.9,1.2,8.5,0.9c3.2-0.4,5.9-2.1,8.2-4.4c3.2-3.4,5.3-8.3,5.3-14.6
	C341.8,335.4,332.3,328.6,320.6,334.3z M389.6,332.8c-11.4,19.4-24.5,35.7-42,44.7c-36,18.4-62.7,33.4-62.7,33.4l-0.1-0.1v-0.3
	l-0.3,0.2l-0.3-0.2v0.3l-0.1,0.1c0,0-26.8-14.9-62.7-33.4c-17.5-9-30.6-25.3-42-44.7c-53.3,21.6-90.4,71.5-90.4,114.8
	c0,45.8,0,90.2,0,90.2H284h0.8H480c0,0,0-44.4,0-90.2C480,404.2,442.8,354.4,389.6,332.8z"/>
</svg>
