<?xml version="1.0" encoding="utf-8"?>
<!-- Generator: Adobe Illustrator 17.1.0, SVG Export Plug-In . SVG Version: 6.00 Build 0)  -->
<!DOCTYPE svg PUBLIC "-//W3C//DTD SVG 1.1//EN" "http://www.w3.org/Graphics/SVG/1.1/DTD/svg11.dtd">
<svg version="1.1" id="Capa_1" xmlns="http://www.w3.org/2000/svg" xmlns:xlink="http://www.w3.org/1999/xlink" x="0px" y="0px"
	 width="550px" height="550px" viewBox="0 0 550 550" enable-background="new 0 0 550 550" xml:space="preserve">
<path d="M385.88,368.08c-11.872,20.384-25.76,37.632-43.904,47.04c-37.632,19.376-65.744,35.056-65.744,35.056l-70.784-35.056
	c-18.48-9.52-31.472-28.896-38.976-47.936c-56.784,22.288-110.096,75.488-110.096,121.744V542.8h437.248c0,0,0-5.712,0-53.872
	C493.624,443.232,441.544,390.816,385.88,368.08z M161.768,302.224c16.24,53.312,57.904,108.528,114.24,108.528
	s98.112-55.216,114.24-108.528c13.888-4.816,25.536-18.704,30.016-36.624c5.376-21.616-1.008-41.888-14.672-51.184
	c-4.816-61.824-43.12-112.224-97.664-125.44L280.936,5.2h-13.552l-26.32,84.224c-49.728,16.576-90.048,66.864-94.64,124.992
	c-13.664,9.296-20.048,29.568-14.672,51.184C136.344,283.52,147.88,297.408,161.768,302.224z M381.4,284.976l-6.272,0.784
	l-1.68,6.048c-4.704,17.136-12.32,34.384-22.064,49.504c-18.592,28.784-45.248,50.4-75.376,50.4
	c-30.128,0-56.784-21.616-75.376-50.4c-9.856-15.232-17.472-32.368-22.064-49.504l-1.68-6.048l-6.16-0.784
	c-7.392-1.008-16.912-9.52-20.496-23.968c-3.808-15.12,1.008-30.352,10.416-32.704c0.56-0.112,1.232-0.224,2.016-0.224
	c0.56,0,1.008,0,1.568,0.112l8.848,0.784l1.344-8.848c8.96-60.368,49.84-100.912,101.696-100.912s92.624,40.544,101.696,100.912
	l1.344,8.848l8.848-0.784c1.344-0.112,2.688-0.112,3.584,0.112c9.296,2.352,14.112,17.584,10.416,32.704
	C398.312,275.456,388.904,283.968,381.4,284.976z"/>
</svg>
