<?xml version="1.0" encoding="utf-8"?>
<!-- Generator: Adobe Illustrator 18.0.0, SVG Export Plug-In . SVG Version: 6.00 Build 0)  -->
<!DOCTYPE svg PUBLIC "-//W3C//DTD SVG 1.1//EN" "http://www.w3.org/Graphics/SVG/1.1/DTD/svg11.dtd">
<svg version="1.1" id="Capa_1" xmlns="http://www.w3.org/2000/svg" xmlns:xlink="http://www.w3.org/1999/xlink" x="0px" y="0px"
	 width="550px" height="550px" viewBox="0 0 550 550" enable-background="new 0 0 550 550" xml:space="preserve">
<g>
	<path d="M176.5,283.8c23.1,34.8,56.7,61.4,97.7,61.4c45.2,0,81.6-32.6,104.6-72.6c25-20.7,43-48.4,50.5-79.8c0.3-1,0.7-1.9,0.9-2.9
		c1.1-4.2,1.7-8.6,1.9-12.8c0.7-5.5,1-10.9,1-16.5c0-83.2-72.9-150.6-163-150.6c-0.9,0-1.8,0.1-2.7,0.1c-4.5-0.1-8.9,0.1-13.4,0.7
		c-82.5,7.5-146.8,71.7-146.8,149.8C107.1,211.6,134.6,256.5,176.5,283.8z M331.2,300.2c-16.6,15.1-36,24.7-57.1,24.7
		c-19,0-36.6-7.8-52-20.3c-25.2-20.5-44.5-53.7-53.5-86.7l-1.9-6.5l-6.7-0.9c-8-1.1-18.3-10.3-22.2-25.6
		c-2.7-10.4-1.7-20.7,2.7-27.9c1.6-2.7,4.3-5.9,8.6-7c0.6-0.1,1.1-0.2,1.8-0.2c3.1,10.5,8.5,20,16.3,27.8
		c31.4,31.4,90.1,23.7,131-17.2c7.5-7.5,13.7-15.5,19-23.9c22.3,13.6,48.1,14,63.3-1.2c0.8-0.8,1.3-1.8,2.1-2.7
		c0.6,2.8,1.1,5.6,1.6,8.5l1.4,9.5l9.6-0.9c1.4-0.1,2.9-0.1,3.9,0.1c4.2,1.1,7,4.5,8.6,7c4.2,7.1,5.2,17.6,2.7,27.9
		c-3.9,15.4-14.2,24.5-22.2,25.6l-6.7,0.9l-1.8,6.5C371.1,248.6,353.8,279.5,331.2,300.2z"/>
	<path d="M390.9,313.8c-12.6,21.4-27.1,39.5-46.3,49.3c-39.7,20.3-69.2,36.8-69.2,36.8l-0.1-0.1v-0.4l-0.4,0.2l-0.4-0.2v0.4
		l-0.1,0.1c0,0-29.5-16.5-69.2-36.8c-19.3-9.8-33.8-27.9-46.3-49.3c-58.8,23.9-99.8,78.8-99.8,126.8c0,50.5,0,99.4,0,99.4h215.4h0.8
		h215.5c0,0,0-48.9,0-99.4C490.6,392.6,449.7,337.7,390.9,313.8z"/>
</g>
</svg>
