<?xml version="1.0" encoding="utf-8"?>
<!-- Generator: Adobe Illustrator 18.0.0, SVG Export Plug-In . SVG Version: 6.00 Build 0)  -->
<!DOCTYPE svg PUBLIC "-//W3C//DTD SVG 1.1//EN" "http://www.w3.org/Graphics/SVG/1.1/DTD/svg11.dtd">
<svg version="1.1" id="Capa_1" xmlns="http://www.w3.org/2000/svg" xmlns:xlink="http://www.w3.org/1999/xlink" x="0px" y="0px"
	 width="550px" height="550px" viewBox="0 0 550 550" enable-background="new 0 0 550 550" xml:space="preserve">
<g>
	<path d="M120.1,205.4c4.9,19.2,17.3,34.1,32.1,39.2C169.6,301.7,214.3,361,274.7,361s105.1-59.3,122.5-116.4
		c14.9-5.1,27.4-20.1,32.1-39.2c6.8-27.4-3.9-53-24.4-59.2c0-1.1,0-2.2,0.2-3.3c1.1-5.9,7.5-11.3,7.5-17.5c0-6.1-6.4-11.6-7.5-17.5
		c-1.2-6,2.7-13.4,0.4-19c-2.2-5.5-10.2-8.3-13.5-13.5c-3.2-5.1-2.1-13.4-6.2-18c-4-4.4-12.4-4.5-17-8.5c-4.5-3.9-6-12.1-11.2-15.5
		c-5-3.2-13.1-1-18.7-3.6c-5.4-2.5-8.8-10.3-14.6-12.1c-5.6-1.9-13,2.1-19,0.9c-5.9-1.2-10.8-8-17-8.6c-6-0.7-12.3,4.9-18.4,4.9
		c-6.2,0-12.5-5.5-18.4-4.9c-6.1,0.7-11.2,7.4-17,8.6c-6,1.3-13.4-2.8-19-0.9c-5.9,2-9.3,9.6-14.6,12.1c-5.5,2.7-13.7,0.4-18.7,3.6
		C177,36.7,175.6,45,171,48.9c-4.6,4-13.1,4-17,8.5c-4.1,4.5-3,12.9-6.2,18c-3.2,5.2-11.2,7.8-13.5,13.5c-2.2,5.6,1.7,13,0.4,19
		c-1.1,5.9-7.5,11.3-7.5,17.5c0,6.1,6.4,11.6,7.5,17.5c0.6,2.5,0.1,5.4-0.4,8.2C120.8,161.5,114.3,182.8,120.1,205.4z M409.8,200.4
		c-3.9,15.5-14,24.6-22,25.6l-6.6,0.9l-1.8,6.5c-14.5,53.2-55.1,107.2-104.6,107.2s-90.1-53.8-104.6-107.1l-1.8-6.5l-6.6-0.9
		c-8-1.1-18.1-10.3-22-25.6c-2.9-11.5-1-23.1,3.9-29.7c2-2.7,4.4-4.6,7.3-5.3c0.7-0.1,1.3-0.2,2.2-0.2c0.6,0,1.1,0,1.7,0.1l9.6,0.9
		l1.4-9.5c9.6-64.7,53.5-108.2,109-108.2s99.4,43.5,109,108.2l1.4,9.5l9.6-0.9c1.3-0.1,2.8-0.1,3.9,0.1s2.1,0.8,3.1,1.4
		C409.7,171.6,413.3,186.1,409.8,200.4z"/>
	<path d="M324.1,85.1c-1.7-2.1-3.6-4.4-6.3-6.4c-2.4-2.3-5.3-4.5-8.6-6.5c-3.2-2.2-7-3.8-10.8-5.5c-4-1.3-8.2-2.9-12.6-3.5
		c-4.4-1-8.9-1.1-13.5-1.3c-4.5,0.2-9.1,0.3-13.5,1.4c-4.4,0.7-8.6,2.2-12.6,3.5c-3.9,1.8-7.6,3.3-10.8,5.5c-3.3,2-6.2,4.2-8.6,6.4
		c-2.5,2-4.6,4.4-6.3,6.5c-1.9,2-3.1,3.9-4,5.5c-1.9,3.2-2.9,5.2-2.9,5.2s2.1-0.8,5.4-2.3c3.4-1.8,8-3.3,13.5-5.3
		c2.8-1,5.7-1.9,8.8-2.7c3-1,6.4-1.4,9.7-2.3c3.4-0.3,6.8-1.2,10.4-1.3c3.5-0.4,7.2-0.4,10.7-0.6c3.5,0.2,7.2,0.1,10.7,0.6
		c3.5,0.2,7,1,10.4,1.3c3.3,0.9,6.7,1.2,9.7,2.3c3.1,0.8,6.1,1.7,8.8,2.7c5.4,1.9,10.3,3.8,13.5,5.3c3.3,1.5,5.4,2.3,5.4,2.3
		s-0.9-2-2.9-5.2C327.2,89,325.8,87,324.1,85.1z"/>
	<path d="M383.3,328.7c-11.7,20-25.3,36.9-43.3,46.1c-37.1,19-64.7,34.4-64.7,34.4l-0.1-0.1v-0.4l-0.4,0.2l-0.4-0.2v0.4l-0.1,0.1
		c0,0-27.6-15.4-64.7-34.4c-18-9.2-31.6-26.1-43.3-46.1c-54.9,22.3-93.2,73.7-93.2,118.4c0,47.2,0,92.9,0,92.9h201.5h0.8h201.4
		c0,0,0-45.7,0-92.9C476.5,402.3,438.2,351,383.3,328.7z"/>
</g>
</svg>
