<?xml version="1.0" encoding="utf-8"?>
<!-- Generator: Adobe Illustrator 17.1.0, SVG Export Plug-In . SVG Version: 6.00 Build 0)  -->
<!DOCTYPE svg PUBLIC "-//W3C//DTD SVG 1.1//EN" "http://www.w3.org/Graphics/SVG/1.1/DTD/svg11.dtd">
<svg version="1.1" id="Capa_1" xmlns="http://www.w3.org/2000/svg" xmlns:xlink="http://www.w3.org/1999/xlink" x="0px" y="0px"
	 width="550px" height="550px" viewBox="0 0 550 550" enable-background="new 0 0 550 550" xml:space="preserve">
<path d="M402.9,316.2c-12.8,21.6-27.4,39.8-46.8,49.9c-40.2,20.6-74,37.2-74,37.2L207.7,367c-19.7-10.1-43.6-28.8-58-50.8
	c-60.5,23.6-95.5,79-95.5,128.1v100.6h449.7c0,0,0-49.4,0-100.6C503.7,395.9,462.3,340.3,402.9,316.2z M155.6,238.4
	c17.9,58.9,64.1,120.1,126.4,120.1s108.5-61.1,126.4-120.1c15.3-5.3,28.3-20.7,33.2-40.5c7.3-29-4.4-56-26.7-61.7
	c-0.4-0.1-0.7-0.2-1.2-0.3c-14-72.7-66.1-121-131.8-121s-117.6,48.3-131.8,121c-0.4,0.1-0.7,0.2-1.2,0.2
	c-22.2,5.6-33.9,32.7-26.7,61.7C127.5,217.7,140.2,233.1,155.6,238.4z M154.3,156.6c0.6-0.2,1.4-0.2,2.3-0.2c0.6,0,1.2,0,1.8,0.1
	l9.9,0.8l1.5-9.8c9.9-66.7,55.1-111.6,112.5-111.6s102.5,44.9,112.5,111.6l1.5,9.8l9.9-0.8c1.5-0.1,3-0.1,4,0.2
	c10.3,2.6,15.7,19.5,11.5,36.2c-4,15.9-14.4,25.4-22.7,26.5l-6.9,0.9l-1.8,6.7c-15,54.9-56.8,110.6-107.8,110.6
	S189.6,281.9,174.6,227l-1.8-6.7l-6.9-0.9c-8.2-1.2-18.7-10.5-22.7-26.5C138.6,176.1,143.9,159.2,154.3,156.6z M253.7,213
	c4.3-4.8,7.1-11.2,7.9-17.6c12-7.7,27.3-7.9,39.5-0.7c0.4,0.2,0.7,0.5,1.2,0.7c0.2,6.4,3.1,12.8,7.5,17.6
	c16.2,18.1,73.4,11.9,73.4-18.4c0-27.2-67.9-41.2-79.6-15c-0.6,1.4-0.8,2-1.4,4.2c-13.2-6.1-28.4-5.9-41.3,0.5
	c-0.4-1.6-0.7-3.3-1.4-4.8c-11.8-26.2-79.5-12.2-79.5,15C179.9,224.9,237.3,231.1,253.7,213z M326,249.6c-16.5-16.5-45-15-45.2-14.9
	c-2.6-0.1-29.2-0.8-45,15c-16.5,16.5-14.9,45.2-14.9,45.2s28.6,1.7,45.2-14.9c11.4-11.4,14.2-28.5,14.8-38.1
	c0.6,9.6,3.4,26.7,14.8,38.1c16.5,16.5,45.2,14.9,45.2,14.9S342.5,266.3,326,249.6z"/>
</svg>
