<?xml version="1.0" encoding="utf-8"?>
<!-- Generator: Adobe Illustrator 18.0.0, SVG Export Plug-In . SVG Version: 6.00 Build 0)  -->
<!DOCTYPE svg PUBLIC "-//W3C//DTD SVG 1.1//EN" "http://www.w3.org/Graphics/SVG/1.1/DTD/svg11.dtd">
<svg version="1.1" id="Capa_1" xmlns="http://www.w3.org/2000/svg" xmlns:xlink="http://www.w3.org/1999/xlink" x="0px" y="0px"
	 width="550px" height="550px" viewBox="0 0 550 550" enable-background="new 0 0 550 550" xml:space="preserve">
<g>
	<path d="M124.9,200.4c4.8,18.9,17,33.5,31.7,38.7c17.1,56.3,61.2,114.6,120.6,114.6c59.5,0,103.5-58.3,120.6-114.6
		c14.7-5,26.9-19.8,31.7-38.7c6.2-24.9-2.3-48.2-19.5-56.5c0-1,0.2-1.9,0.2-2.9c0-29.7-14.3-56.4-37.4-76.4c0.2-1.4,0.3-2.8,0.3-4.4
		c0-19.2-45.1-50.2-100.7-50.2s-100.7,31-100.7,50.2c0,2,0.2,3.6,0.4,5.1c-22.7,19.9-36.7,46.4-36.7,75.6c0,3,0.2,5.9,0.6,8.9
		C124.5,160.7,119.7,180.1,124.9,200.4z M143.3,178.4c1.3-8.9,5.7-15.9,11.9-17.4c0.7-0.1,1.3-0.2,2.1-0.2c0.6,0,1.1,0,1.7,0.1
		l9.4,0.9l1.4-9.3c3.2-21.4,10.3-40.4,20.2-56.3c18.2-2.4,48.2-16.7,82.2-16.7c40.9,0,76.1,20.7,91.9,16.4
		c10,15.9,17.2,35,20.4,56.5l1.4,9.3l9.4-0.9c1.3-0.1,2.8-0.1,3.8,0.1c2.9,0.8,5.3,2.8,7.2,5.4c4.7,6.6,6.4,17.8,3.7,29.1
		c-3.8,15.2-13.8,24.2-21.7,25.3l-6.6,0.9l-1.8,6.4c-14.3,52.4-54.3,105.6-103,105.6s-88.6-53.1-103-105.6l-1.8-6.4l-6.6-0.9
		c-7.9-1.1-17.8-10.1-21.7-25.3C142.7,189.6,142.5,183.7,143.3,178.4z"/>
	<path d="M392.1,311.4c-12.7,21.7-27.3,39.9-46.8,49.8c-40.1,20.5-70,37.2-70,37.2l-0.1-0.1v-0.4l-0.4,0.2l-0.4-0.2v0.4l-0.1,0.1
		c0,0-29.9-16.7-70-37.2c-19.4-10-34.1-28.2-46.8-49.8C98.1,335.5,56.9,391,56.9,439.5c0,51,0,100.4,0,100.4h217.7h0.9h217.7
		c0,0,0-49.4,0-100.4C492.9,391,451.5,335.5,392.1,311.4z"/>
</g>
</svg>
