<?xml version="1.0" encoding="utf-8"?>
<!-- Generator: Adobe Illustrator 18.0.0, SVG Export Plug-In . SVG Version: 6.00 Build 0)  -->
<!DOCTYPE svg PUBLIC "-//W3C//DTD SVG 1.1//EN" "http://www.w3.org/Graphics/SVG/1.1/DTD/svg11.dtd">
<svg version="1.1" id="Capa_1" xmlns="http://www.w3.org/2000/svg" xmlns:xlink="http://www.w3.org/1999/xlink" x="0px" y="0px"
	 width="550px" height="550px" viewBox="0 0 550 550" enable-background="new 0 0 550 550" xml:space="preserve">
<g>
	<path d="M155.1,239.6c17.2,56.4,61.4,115,121,115s103.9-58.6,121-115c14.7-5.1,27-19.8,31.8-38.8c6.6-26.1-3.1-50.3-21.9-57.6
		c1.7-6.9,2.6-14,2.6-21.3C409.6,60,347.9,10,271.8,10s-138,50.1-138,111.9c0,8.8,1.4,17.4,3.7,25.6c-13.6,10.3-19.8,31.1-14.2,53.4
		C128.1,219.8,140.4,234.5,155.1,239.6z M145.9,167.7c2-3.3,4.6-5.5,7.9-6.4c0.6-0.1,1.4-0.2,2.1-0.2c0.6,0,1.1,0,1.7,0.1l9.5,0.9
		l1.4-9.4c2.9-19.6,9-37.2,17.6-52.2c16.1,18.1,48.1,30.4,85,30.4c41.7,0,77.2-15.7,90.3-37.7c11,16.5,18.8,36.6,22.2,59.5l1.4,9.4
		l9.5-0.9c1.4-0.1,2.7-0.1,3.8,0.1c0.7,0.1,1.1,0.6,1.8,0.8c8.6,3.8,13,18.9,9.3,33.9c-3.8,15.3-13.8,24.3-21.7,25.3l-6.6,0.9
		l-1.8,6.4c-14.4,52.6-54.4,106-103.4,106s-89-53.3-103.2-106l-1.8-6.4l-6.6-0.9c-7.9-1-17.9-10.2-21.7-25.3
		C140.1,185.2,141.6,174.3,145.9,167.7z"/>
	<path d="M393.6,309.4c-12.8,21.8-27.6,40.3-47.3,50.2c-40.5,20.7-70.6,37.5-70.6,37.5l-0.1-0.1v-0.5l-0.5,0.2l-0.5-0.2v0.5
		l-0.1,0.1c0,0-30.1-16.7-70.6-37.5c-19.6-10.1-34.4-28.5-47.3-50.2C96.7,333.7,54.8,389.8,54.8,438.6c0,51.5,0,101.4,0,101.4h219.7
		h0.8h219.9c0,0,0-49.9,0-101.4C495.4,389.8,453.5,333.8,393.6,309.4z"/>
</g>
</svg>
