<?xml version="1.0" encoding="utf-8"?>
<!-- Generator: Adobe Illustrator 18.0.0, SVG Export Plug-In . SVG Version: 6.00 Build 0)  -->
<!DOCTYPE svg PUBLIC "-//W3C//DTD SVG 1.1//EN" "http://www.w3.org/Graphics/SVG/1.1/DTD/svg11.dtd">
<svg version="1.1" id="Capa_1" xmlns="http://www.w3.org/2000/svg" xmlns:xlink="http://www.w3.org/1999/xlink" x="0px" y="0px"
	 width="550px" height="550px" viewBox="0 0 550 550" enable-background="new 0 0 550 550" xml:space="preserve">
<g>
	<path d="M153.3,238c17.2,56.9,61.8,116,122.1,116s104.7-59,122.1-116c14.8-5.2,27.2-19.9,32-39.1c5.8-23.1-1-44.8-15.7-54.8
		C407.7,67,348,6.4,275.3,6.4S143,67,136.9,144.2c-14.6,10-21.4,31.6-15.7,54.8C126,218.2,138.5,233,153.3,238z M387.9,219.8
		l-6.6,0.9l-1.8,6.5c-5,18.4-13.1,36.7-23.6,53C336,311,307.6,334,275.3,334s-60.7-23.2-80.5-54c-10.5-16.2-18.6-34.5-23.6-53
		l-1.8-6.5l-6.6-0.9c-8-1.1-18-10.2-21.8-25.5c-4-16.1,1.1-32.5,11.1-34.9c0.7-0.1,1.3-0.2,2.1-0.2c0.6,0,1.1,0,1.7,0.1l9.5,0.9
		l1.5-9.5c3-20.5,9.6-38.9,18.8-54.3h179.5c9.2,15.6,15.8,33.8,18.8,54.3l1.5,9.5l9.5-0.9c1.3-0.1,2.8-0.1,3.8,0.1
		c10,2.5,15.1,18.8,11.1,34.9C405.9,209.5,395.8,218.7,387.9,219.8z"/>
	<path d="M396.5,306.9c-13.1,22.4-28.3,41.2-48.5,51.5c-41.6,21.3-72.5,38.5-72.5,38.5l-0.1-0.1v-0.4l-0.4,0.2l-0.4-0.2v0.4
		l-0.1,0.1c0,0-30.9-17.2-72.5-38.5c-20.2-10.3-35.3-29.2-48.5-51.5C92,332,49.1,389.4,49.1,439.5c0,52.9,0,104,0,104h225.5h0.9
		h225.5c0,0,0-51.2,0-104C500.9,389.2,458,331.9,396.5,306.9z"/>
</g>
</svg>
