<?xml version="1.0" encoding="utf-8"?>
<!-- Generator: Adobe Illustrator 18.0.0, SVG Export Plug-In . SVG Version: 6.00 Build 0)  -->
<!DOCTYPE svg PUBLIC "-//W3C//DTD SVG 1.1//EN" "http://www.w3.org/Graphics/SVG/1.1/DTD/svg11.dtd">
<svg version="1.1" id="Capa_1" xmlns="http://www.w3.org/2000/svg" xmlns:xlink="http://www.w3.org/1999/xlink" x="0px" y="0px"
	 width="550px" height="550px" viewBox="0 0 550 550" enable-background="new 0 0 550 550" xml:space="preserve">
<g>
	<path d="M497.2,437c0-48.2-39.5-103.4-96.1-127.4c-12.1,21.5-26.1,39.7-44.6,49.5c-38.3,20.4-66.7,37-66.7,37l-70.8-37
		c-18.8-10.1-41.7-28.5-55.2-50.5c-57.7,23.5-89.1,79.5-89.1,128.3v104.9h422.6C497.2,541.9,497.2,487.8,497.2,437z"/>
	<path d="M133.8,201.7c4.7,18.8,17.1,33.6,31.6,38.6c17.1,56.2,61,114.5,120.5,114.5s103.4-58.3,120.5-114.5
		c14.6-5,26.9-19.7,31.6-38.6c6.6-25.9-3.1-50.1-21.9-57.3c1.6-6.9,2.5-14,2.5-21.2c0-61.5-61.4-111.4-137.2-111.4
		S144.2,61.7,144.2,123.2c0,8.7,1.4,17.3,3.7,25.5C134.5,158.7,128.2,179.5,133.8,201.7z M156.3,168.6c2.1-3.2,4.7-5.6,7.9-6.3
		c0.7-0.1,1.3-0.2,2.2-0.2c0.5,0,1.1,0,1.6,0.1l9.4,0.9l1.4-9.4c3.9-26.7,13.9-49.6,28.1-67.3c9.2,16.1,38.9,27.9,74.1,27.9
		c40.9,0,74.2-15.9,77-35.9c17.9,18.6,30.5,44.5,35.1,75.4l1.4,9.4l9.4-0.9c1.3-0.1,2.7-0.1,3.8,0.1c0.7,0.1,1.2,0.5,1.7,0.8
		c8.6,3.8,12.9,18.8,9.2,33.7c-3.8,15.2-13.8,24.2-21.5,25.3l-6.6,0.9l-1.7,6.3c-14.3,52.4-54.2,105.4-102.8,105.4
		s-88.6-53-102.8-105.4l-1.7-6.3l-6.6-0.9c-7.9-1.1-17.8-10.1-21.5-25.3C150.5,186.1,152.1,175.3,156.3,168.6z"/>
	<path d="M241.4,234.6c4.4,0,8.5-0.9,12.5-2.3c12-4.2,21.3-14.1,24.6-26.6h22c2.7,10.6,9.8,19.4,19.4,24.3
		c5.4,2.7,11.3,4.5,17.7,4.5c18.3,0,33.6-12.9,37.4-30.1c0.7-2.7,1-5.5,1-8.4c0-21.2-17.3-38.4-38.4-38.4
		c-17.8,0-32.8,12.2-37.1,28.9h-22c-4.3-16.5-19.2-28.9-37.1-28.9c-21.2,0-38.4,17.3-38.4,38.4c0,8.2,2.6,15.7,7,22
		C217,228,228.5,234.6,241.4,234.6z M337.5,176.8c10.6,0,19.2,8.6,19.2,19.2s-8.6,19.2-19.2,19.2s-19.2-8.6-19.2-19.2
		S326.9,176.8,337.5,176.8z M241.4,176.8c10.6,0,19.2,8.6,19.2,19.2s-8.6,19.2-19.2,19.2s-19.2-8.6-19.2-19.2
		S230.9,176.8,241.4,176.8z"/>
</g>
</svg>
