<?xml version="1.0" encoding="utf-8"?>
<!-- Generator: Adobe Illustrator 18.0.0, SVG Export Plug-In . SVG Version: 6.00 Build 0)  -->
<!DOCTYPE svg PUBLIC "-//W3C//DTD SVG 1.1//EN" "http://www.w3.org/Graphics/SVG/1.1/DTD/svg11.dtd">
<svg version="1.1" id="Capa_1" xmlns="http://www.w3.org/2000/svg" xmlns:xlink="http://www.w3.org/1999/xlink" x="0px" y="0px"
	 width="550px" height="550px" viewBox="0 0 550 550" enable-background="new 0 0 550 550" xml:space="preserve">
<path d="M406.9,343.9c-30.1,37.7-71.3,62.6-117.3,66.9c-5.5,0.7-11.1,0.8-14.6,0.8c-50.3,0-96-24.5-129-64.2
	c-40.5,24.8-71.9,65.2-71.9,101.3V540h401.8c0,0,0-46,0-91.4C476.1,411.1,448.5,368.4,406.9,343.9z M175,325.2
	c3.6,4.3,7.4,8.3,11.5,12.1c18.2,17.4,39.5,29.5,62.9,34.8c8.4,1.9,17.1,3.1,25.8,3.1c35.3,0,67.7-15.6,93-41.8
	c4.5-4.6,8.6-9.6,12.6-14.9c25.1-32.7,40.5-77,40.5-125.9C421.3,91.7,355.9,10,275.2,10S129.1,91.6,129.1,192.5
	c0,47.9,14.9,91.4,39,123.9C170.3,319.5,172.6,322.4,175,325.2z M181.4,168.6c28.1,28.1,18.3-34.7,54.9-71.2
	c12.3-12.3,28.2-20,42.9-26c1.3,17.1,13,36.4,32.4,50.8c22.6,16.7,48.8,21.2,65.9,13.1c0,0,2.7-2.2,9.6-0.4c3.8,1,6.3,3.9,7.7,6.3
	c3.8,6.3,4.7,15.8,2.3,24.9c-3.5,13.8-12.6,22-19.9,23l-6,0.8l-1.6,5.8c-13.1,47.6-49.8,95.8-94.5,95.8s-81.4-48.3-94.5-95.8
	l-1.6-5.8l-6-0.8c-7.2-1-16.4-9.2-19.9-23c-2.3-9.3-1.4-18.6,2.3-24.9c1.4-2.3,3.8-5.4,7.8-6.3c0.4-0.1,1.1-0.2,1.6-0.2
	C166.9,147.6,172.3,159.5,181.4,168.6z"/>
</svg>
