<?xml version="1.0" encoding="utf-8"?>
<!-- Generator: Adobe Illustrator 18.0.0, SVG Export Plug-In . SVG Version: 6.00 Build 0)  -->
<!DOCTYPE svg PUBLIC "-//W3C//DTD SVG 1.1//EN" "http://www.w3.org/Graphics/SVG/1.1/DTD/svg11.dtd">
<svg version="1.1" id="Capa_1" xmlns="http://www.w3.org/2000/svg" xmlns:xlink="http://www.w3.org/1999/xlink" x="0px" y="0px"
	 width="550px" height="550px" viewBox="0 0 550 550" enable-background="new 0 0 550 550" xml:space="preserve">
<g>
	<path d="M350.5,366.4c-22.2,11.7-41.8,22.1-54.6,29.1V540h208.8c0,0,0-42.1,0-94c0-49.2-46.3-105.7-105.1-130.2
		C386.9,337.8,369.8,356.3,350.5,366.4z"/>
	<path d="M275,401.8l-69.5-35.4c-19.5-10.2-38.4-29.2-52.5-51.7C92.9,338.7,45.3,396,45.3,445.9v94H275V401.8z M246.2,523.5
		c-8.6,0-15.6-7-15.6-15.6s7-15.6,15.6-15.6s15.6,7,15.6,15.6C261.9,516.5,254.9,523.5,246.2,523.5z M246.2,481.8
		c-8.6,0-15.6-7-15.6-15.6s7-15.6,15.6-15.6s15.6,7,15.6,15.6S254.9,481.8,246.2,481.8z M246.2,440c-8.6,0-15.6-7-15.6-15.6
		s7-15.6,15.6-15.6s15.6,7,15.6,15.6C262,432.9,254.9,440,246.2,440z"/>
	<path d="M150.2,241.2c18,58.4,64.1,119,126.5,119s108.5-60.5,126.5-119c15.4-5.3,28.3-20.6,33.3-40.1c4-16.1,2.2-32.2-5.1-44.4
		c-5.2-8.8-12.7-14.5-21.7-16.7c-0.4-0.1-0.8-0.2-1.2-0.2C393.9,64,339.5,10,276.6,10S159.3,64,144.7,139.7
		c-0.4,0.1-0.8,0.1-1.2,0.2c-9,2.2-16.5,8-21.7,16.7c-7.3,12.1-9.1,28.3-5.1,44.4C122,220.6,134.9,235.9,150.2,241.2z M140,167.4
		c1.6-2.7,4.5-6.1,8.9-7.2c0.7-0.1,1.3-0.2,2.2-0.2c0.6,0,1.1,0,1.8,0.1l9.8,0.9l1.5-9.8c10.6-69.8,57.9-120.4,112.7-120.4
		S379,81.5,389.6,151.2l1.5,9.8l9.8-0.9c1.5-0.1,2.9-0.1,4,0.1c4.4,1.1,7.2,4.5,8.8,7.2c4.4,7.3,5.4,18,2.7,28.5
		c-4,15.7-14.5,25.2-22.7,26.3l-6.9,0.9l-1.8,6.6c-14.9,54.5-57,109.5-108.1,109.5S183.8,284,168.8,229.7l-1.8-6.6l-6.9-0.9
		c-8.3-1.1-18.8-10.4-22.7-26.3C134.6,185.4,135.6,174.7,140,167.4z"/>
	<path d="M233.9,70.1c2-0.9,4.4-1.9,6.9-2.2c2.4-0.4,4.9-1,7.3-1.7c2.2-0.9,5.4-0.8,8.1-1.3c2.8-0.3,5.6-1.3,8.6-1.1
		c2.9,0,6-0.3,8.9-0.6c2.9,0.2,6,0.6,8.9,0.6c3-0.2,5.7,0.8,8.6,1.1c2.8,0.6,5.8,0.3,8.2,1.5c2.6,0.8,5.2,1.3,7.5,1.9
		c2.5,0.4,4.6,1.3,6.5,2c1.9,0.8,3.7,1.3,5.3,1.8c3,1,5.1,1.5,5.1,1.5s-0.7-1.7-2.4-4.6c-0.8-1.5-1.8-3.3-3.3-5.1
		c-1.3-2-2.8-4.3-5.2-6c-2.1-1.9-4.6-3.9-7.3-6c-2.6-2.2-6.1-3.3-9.4-4.8c-3.5-1.3-7-3.1-10.9-3.4c-3.8-0.7-7.9-1-11.8-1.5
		c-3.9,0.3-8,0.8-11.8,1.5c-3.9,0.3-7.4,2-10.9,3.4c-3.4,1.6-6.6,2.5-9.5,4.9c-2.9,2-5.4,4.3-7.6,6.2c-2.5,1.8-3.7,3.9-4.9,5.7
		c-1.2,1.8-2.2,3.6-3,4.9c-1.6,2.8-2.4,4.6-2.4,4.6s1.9-0.4,5.1-1.5C230,71.6,231.9,71,233.9,70.1z"/>
	<path d="M231.1,107.6c2.9-1.1,6.1-2,9.4-2.8c3.3-1.1,6.9-1.5,10.4-2.5c3.7-0.4,7.3-1.2,11.1-1.5c3.8-0.4,7.6-0.4,11.5-0.6
		c3.8,0.2,7.6,0.1,11.5,0.7c3.8,0.2,7.4,1,11.1,1.5c3.5,1,7.2,1.3,10.3,2.5c3.4,0.9,6.5,1.8,9.4,2.8c5.8,2,11,4,14.4,5.7
		c3.6,1.6,5.8,2.5,5.8,2.5s-1-2-3-5.6c-1-1.8-2.4-3.8-4.3-6c-1.8-2.2-3.9-4.7-6.6-6.9c-2.6-2.5-5.6-4.8-9.2-7
		c-3.4-2.4-7.4-3.9-11.6-5.8c-4.3-1.3-8.8-3.1-13.5-3.7c-4.7-1.1-9.5-1.1-14.4-1.5c-4.8,0.3-9.8,0.3-14.4,1.5
		c-4.7,0.7-9.2,2.4-13.5,3.7c-4.2,1.9-8.2,3.5-11.6,5.8c-3.6,2.1-6.6,4.5-9.2,6.9c-2.7,2.1-4.9,4.7-6.7,7c-2,2.1-3.3,4.2-4.3,5.8
		c-2,3.5-3,5.5-3,5.5s2.2-0.8,5.8-2.5C220.4,111.4,225.2,109.8,231.1,107.6z"/>
	<path d="M224.1,242.2c23.6,0,40.7-9.9,41-23.5c7.2-2.8,15.3-2.8,22.5,0c0.3,13.6,17.4,23.5,41,23.5c23.8,0,41.1-10,41.1-23.8
		s-17.3-23.8-41.1-23.8c-14.2,0-25.8,3.6-33.1,9.4c-12.1-5.3-25.9-5.3-38.1,0c-7.3-5.7-19-9.4-33.1-9.4c-23.8,0-41.1,10-41.1,23.8
		C183,232.1,200.3,242.2,224.1,242.2z M352.7,218c-0.8,2-9.3,7.3-24.3,7.3c-13.8,0-22.1-4.5-23.8-6.4l3.5-3.5
		c3.9-2,10.9-4.2,20.4-4.2C343.4,211.3,352.1,216.6,352.7,218z M224.1,211.3c9.3,0,16.2,2,20.1,3.9l3.6,3.6
		c-2.1,2.4-10.3,6.5-23.7,6.5c-14.9,0-23.5-5.3-24.3-6.7C200.6,216.6,209.2,211.3,224.1,211.3z"/>
</g>
</svg>
