<?xml version="1.0" encoding="utf-8"?>
<!-- Generator: Adobe Illustrator 18.0.0, SVG Export Plug-In . SVG Version: 6.00 Build 0)  -->
<!DOCTYPE svg PUBLIC "-//W3C//DTD SVG 1.1//EN" "http://www.w3.org/Graphics/SVG/1.1/DTD/svg11.dtd">
<svg version="1.1" id="Capa_1" xmlns="http://www.w3.org/2000/svg" xmlns:xlink="http://www.w3.org/1999/xlink" x="0px" y="0px"
	 width="550px" height="550px" viewBox="0 0 550 550" enable-background="new 0 0 550 550" xml:space="preserve">
<g>
	<path d="M403.2,311.2c-12.7,21.6-27.4,39.9-46.9,49.8c-17,8.7-31.9,16.6-43.8,23c0,1.6,0,3.1,0,4.8c0,16.6-13.6,30.2-30.2,30.2
		s-30.2-13.6-30.2-30.2c0,0-0.2-3.5-0.1-5.1c-26.8-13-43-22.4-43-22.4c-19.7-10.1-45.3-31.4-54.9-51
		c-60.6,23.6-113.6,80-113.6,129.1V540h463.6c0,0,0-49.5,0-100.6C504.1,391,462.7,335.4,403.2,311.2z M282.4,486.4
		c-12.2,0-22.1-9.9-22.1-22.1c0-12.2,9.9-22.1,22.1-22.1s22.1,9.9,22.1,22.1C304.5,476.6,294.6,486.4,282.4,486.4z"/>
	<path d="M414.2,131.1C400.2,58.2,348.1,10,282.5,10S164.8,58.2,150.8,131.1c-0.3,0.1-0.8,0.2-1.1,0.2c-22.2,5.5-34,32.6-26.7,61.6
		c5,19.8,17.9,35.2,33.2,40.4c17.9,58.9,64.1,120,126.4,120S391.1,292.1,409,233.1c15.3-5.3,28.2-20.7,33.2-40.4
		c7.2-29-4.4-56.1-26.6-61.6C414.9,131.3,414.6,131.2,414.2,131.1z M421.7,187.9c-4,16-14.4,25.4-22.6,26.5l-6.9,0.9l-1.8,6.7
		c-14.9,54.9-56.9,110.6-107.9,110.6s-93-55.6-108-110.6l-1.8-6.7l-6.9-0.9c-8.3-1.1-18.7-10.5-22.6-26.5
		c-4.2-16.6,1.1-33.6,11.4-36.2c0.7-0.1,1.4-0.2,2.3-0.2c0.6,0,1.1,0,1.7,0.1l9.9,0.9l1.5-9.9c10-66.8,55.2-111.7,112.5-111.7
		S385,75.7,395,142.6l1.5,9.9l9.9-0.9c1.5-0.1,2.8-0.1,4,0.1C420.4,154.3,425.9,171.2,421.7,187.9z"/>
	<path d="M313.3,243.5c-8.8,10.6-20.4,16.5-32.6,16.5s-23.8-5.9-32.6-16.5c-3.5-4.3-9.9-4.9-14.2-1.4c-4.3,3.5-4.9,9.9-1.4,14.2
		c12.7,15.4,29.8,23.8,48.1,23.8c18.2,0,35.3-8.5,48.1-23.8c3.5-4.3,2.9-10.6-1.4-14.2C323.3,238.6,316.8,239.3,313.3,243.5z"/>
</g>
</svg>
