<?xml version="1.0" encoding="utf-8"?>
<!-- Generator: Adobe Illustrator 18.0.0, SVG Export Plug-In . SVG Version: 6.00 Build 0)  -->
<!DOCTYPE svg PUBLIC "-//W3C//DTD SVG 1.1//EN" "http://www.w3.org/Graphics/SVG/1.1/DTD/svg11.dtd">
<svg version="1.1" id="Capa_1" xmlns="http://www.w3.org/2000/svg" xmlns:xlink="http://www.w3.org/1999/xlink" x="0px" y="0px"
	 width="550px" height="550px" viewBox="0 0 550 550" enable-background="new 0 0 550 550" xml:space="preserve">
<g>
	<path d="M385.2,315.6c-26.1,36.1-63.5,62.8-108.6,62.8c-43.9,0-80.5-25.4-106.6-60c-0.1-0.1-0.2-0.2-0.2-0.3
		c-56.1,22.4-109.1,78-109.1,124.5v97.3h428.6c0,0,0-49,0-97.4C489.3,397,448.1,341,385.2,315.6z M278.2,519.6l-60.8-133.7
		c4.2,1.4,8.2,2.7,12.5,3.8c3.9,1.1,8,2.1,12,2.8c10.9,2.1,22,3.2,33,3.2c12.4,0,24.7-1.4,36.7-4v-0.1c3.8-0.9,7.7-1.7,11.5-2.8
		c4.2-1.2,8.4-2.6,12.6-4.2L278.2,519.6z"/>
	<path d="M152.6,243.3c17.3,56.4,61.9,114.8,122.1,114.8s104.7-58.5,122.1-114.8c14.9-5,27.2-19.8,32-38.7
		c3.9-15.5,2.2-31.2-4.8-42.9c-5-8.4-12.2-14-20.9-16.2c-0.3-0.1-0.8-0.2-1.1-0.2c-1.4-7.4-7.1-63.5-39.8-87
		c-14.8-11-32-18.6-49.4-22.6c-12-3.9-24.7-6.1-38.2-6.1c-11.5,0-22.6,1.5-33.1,4.5c0.4-10.9-6.8-10.7-4.4-23.9
		c-26.3-2.7-25.1,23.6-24.7,26.3c0.1,1.2,0.4,2.3,0.5,3.5c-2-0.5-3.9-1-5.9-0.8c-2.2,0.1-4.2,0.3-6,0.8c-3.6,0.8-6.5,3-8.2,4.4
		s-2.6,2.6-2.6,2.6s0.9,1.4,2.3,3.2c1.3,2,3.1,3.7,4.5,6.2c0.2,0.2,0.3,0.5,0.5,0.8c-24.8,20.3-42.9,50.8-50.2,88.2
		c-0.3,0.1-0.8,0.2-1.1,0.2c-8.5,2.2-16,7.9-20.9,16.2c-7,11.7-8.7,27.3-4.8,42.9C125.2,223.5,137.7,238.3,152.6,243.3z M142.6,172
		c1.5-2.6,4.3-5.9,8.5-7c0.7-0.2,1.4-0.2,2.2-0.2c0.5,0,1.1,0,1.6,0.1l9.5,0.9l1.4-9.4c2.3-15.1,6.6-29,12.4-41.4
		c1.6,2.4,3.7,4.6,6.2,6.6c12.9,9.6,33.9,10.5,53.4,3.7c4.5,4.9,9.5,9.6,15.5,14c39.1,29.1,95.1,34.5,125.2,12.2
		c1.2-0.9,2.3-1.9,3.4-2.8c0.5,2.6,1.1,5.1,1.4,7.9l1.4,9.4l9.5-0.9c1.4-0.1,2.8-0.1,3.9,0.1c4.3,1.1,7,4.4,8.5,7
		c4.3,7.1,5.1,17.4,2.6,27.6c-3.8,15.2-14,24.3-21.9,25.3l-6.6,0.9l-1.7,6.5c-14.4,52.6-55,105.7-104.3,105.7S185,284.9,170.6,232.3
		l-1.7-6.5l-6.6-0.9c-8-1.1-18-10.1-22-25.4C137.4,189.4,138.3,179.1,142.6,172z"/>
</g>
</svg>
