<?xml version="1.0" encoding="utf-8"?>
<!-- Generator: Adobe Illustrator 18.0.0, SVG Export Plug-In . SVG Version: 6.00 Build 0)  -->
<!DOCTYPE svg PUBLIC "-//W3C//DTD SVG 1.1//EN" "http://www.w3.org/Graphics/SVG/1.1/DTD/svg11.dtd">
<svg version="1.1" id="Capa_1" xmlns="http://www.w3.org/2000/svg" xmlns:xlink="http://www.w3.org/1999/xlink" x="0px" y="0px"
	 width="550px" height="550px" viewBox="0 0 550 550" enable-background="new 0 0 550 550" xml:space="preserve">
<g>
	<path d="M414.9,351.1c0.8-2.8,1.6-5.9,2.2-9.4c0.6-2.9,1.1-6,1.7-9.5c4.3-27.2,6.5-70.1,6.5-134.6c0-100.7-65.3-182.2-145.8-182.2
		c-29.3,0-56.6,10.9-79.4,29.6c-4,2.8-7.5,5.9-10.4,9.3c-34,33.4-56,85.1-56,143.5c0,68.4,2.6,112.6,7.3,139.3
		c0.6,3.4,1.2,6.5,1.9,9.4c0.8,3.5,1.7,6.6,2.6,9.3C107.6,380.8,79,419.1,79,453.5v91.2h401c0,0,0-45.8,0-91.2
		C480,416.6,454.1,375.8,414.9,351.1z M183.5,194.7l-5.9-0.8c-7.2-1-16.4-9.2-19.8-22.8c-2.4-9.2-1.5-18.6,2.4-25
		c1.3-2.4,3.9-5.4,7.7-6.3c0.6-0.1,1.2-0.2,2-0.2c0.6,0,1,0,1.6,0.1l8.5,0.8l1.2-8.5c1.1-7.1,2.6-13.9,4.6-20.4
		c10.6,34.3,40,30.6,82.5,36c13.2,1.7,29.3,2.6,38.5,2.4c1.6-26.8-29.5-56.8-29.5-56.8s0.7-0.4,3.9-0.1c4.6,0.6,14.4,4,16.5,5.4
		c34,19,40.5,46.5,41,47.5c17.4-4.7,30.5-13.8,35.7-29.5c1.3,5,2.6,10.3,3.4,15.7l1.2,8.5l8.5-0.8c1.2-0.1,2.6-0.1,3.5,0.1
		c3.8,0.9,6.3,3.9,7.7,6.3c3.8,6.4,4.7,15.7,2.4,25c-3.5,13.8-12.7,22-19.8,22.8l-5.9,0.8l-1.6,5.8c-9.3,33.5-28.9,68.3-53.4,88.3
		c-12.7,10.2-26.4,16.6-40.9,16.6s-28.3-6.3-40.9-16.6c-24.5-19.8-44.1-54.7-53.4-88.3L183.5,194.7z M342.8,383.7
		c-34.7,18.3-58,32.9-60.6,33c-11.3-1.5-64.5-32.5-64.5-32.5c-13.2-6.9-21.2-10.8-36.3-25.2c1.9-2.4,9.2-12.5,11.1-15.1
		c1.9-2.4,3.8-4.8,5.7-7.4c8.6-11.2,17.9-23.6,27.7-34.7c16,13.3,34.2,21.5,53.5,21.5s37.5-8.3,53.5-21.5c12.3,14,24,30.1,34.4,43.3
		c2,2.6,4,5,5.9,7.3c2.1,2.6,4.1,4.9,6.2,7.1C371.7,369.7,353.3,378.1,342.8,383.7z"/>
</g>
</svg>
