<?xml version="1.0" encoding="utf-8"?>
<!-- Generator: Adobe Illustrator 17.1.0, SVG Export Plug-In . SVG Version: 6.00 Build 0)  -->
<!DOCTYPE svg PUBLIC "-//W3C//DTD SVG 1.1//EN" "http://www.w3.org/Graphics/SVG/1.1/DTD/svg11.dtd">
<svg version="1.1" id="Capa_1" xmlns="http://www.w3.org/2000/svg" xmlns:xlink="http://www.w3.org/1999/xlink" x="0px" y="0px"
	 width="550px" height="550px" viewBox="0 0 550 550" enable-background="new 0 0 550 550" xml:space="preserve">
<path d="M119.544,265.552c0,25.984,17.136,46.928,38.304,46.928h54.208c17.92,16.24,38.528,26.544,60.704,26.544
	s42.784-10.304,60.704-26.544h54.208c21.168,0,38.304-21.056,38.304-46.928v-68.096h-0.112c0.224-5.152,0.336-10.528,0.336-16.24
	c0-91.84-68.656-166.32-153.328-166.32s-153.328,74.48-153.328,166.32c0,5.712,0.112,11.088,0.336,16.24h-0.336L119.544,265.552
	L119.544,265.552z M272.872,319.76c-9.632,0-19.04-2.8-28-7.392c-7.504-3.92-14.672-9.184-21.504-15.568
	c-22.736-21.392-40.88-54.88-49.84-87.136l-1.68-6.16l-6.272-0.784c-3.248-0.448-6.72-2.24-10.08-5.264
	c-4.592-4.144-8.624-10.416-10.752-18.816c-2.464-9.744-1.568-19.488,2.464-26.208c1.456-2.464,4.032-5.6,8.064-6.608
	c0.56-0.112,1.232-0.224,2.016-0.224c0.56,0,1.12,0,1.568,0.112l3.472,0.336l0,0c15.344,23.408,58.576,17.36,96.432-13.44
	c7.728-6.272,14.56-13.104,20.496-20.16c14.56-1.68,30.352-2.128,45.472,1.904c33.6,8.96,43.12,27.664,52.528,31.584l0.112,0.56
	l1.344-0.112c1.68,0.448,3.472,0.224,5.488-0.56l2.24-0.224c1.344-0.112,2.688-0.112,3.696,0.112
	c4.032,1.008,6.608,4.144,8.064,6.608c4.032,6.72,4.928,16.464,2.464,26.208c-2.128,8.288-6.272,14.672-10.752,18.816
	c-3.36,3.024-6.832,4.928-10.08,5.264l-6.272,0.896l-1.68,6.16c-8.848,32.032-26.656,65.072-49.168,86.576
	c-6.944,6.608-14.336,12.208-22.176,16.24C291.912,317.184,282.504,319.76,272.872,319.76z M385.656,329.616
	c-11.984,20.384-25.76,37.632-44.128,46.928C303.672,395.92,275.56,411.6,275.56,411.6l-0.112-0.112v-0.448L275,411.264
	l-0.448-0.224v0.448l-0.112,0.112c0,0-28.112-15.68-65.968-35.056c-18.368-9.408-32.144-26.544-44.128-46.928
	c-56,22.736-95.088,75.152-95.088,120.736c0,48.16,0,94.752,0,94.752h205.408h0.784h205.296c0,0,0-46.592,0-94.752
	C480.744,404.656,441.656,352.464,385.656,329.616z"/>
</svg>
