<?xml version="1.0" encoding="utf-8"?>
<!-- Generator: Adobe Illustrator 18.0.0, SVG Export Plug-In . SVG Version: 6.00 Build 0)  -->
<!DOCTYPE svg PUBLIC "-//W3C//DTD SVG 1.1//EN" "http://www.w3.org/Graphics/SVG/1.1/DTD/svg11.dtd">
<svg version="1.1" id="Capa_1" xmlns="http://www.w3.org/2000/svg" xmlns:xlink="http://www.w3.org/1999/xlink" x="0px" y="0px"
	 width="550px" height="550px" viewBox="0 0 550 550" enable-background="new 0 0 550 550" xml:space="preserve">
<g>
	<path d="M184.4,320.6c21.3,3.2,47.3-1.7,75.7-3.4c5.3,1.2,10.6,2,16.1,2c5.6,0,11.1-0.8,16.6-2.1c73.9,3.6,131.5,24.5,131.5-125.9
		c0-102.1-66.3-185-148.1-185s-148.1,82.9-148.1,185c0,82.1,15.7,114,41.2,125.1C174,318.5,179.1,319.8,184.4,320.6z M160.8,133.5
		c15.5,21.5,55.7,16.9,90.4-10.3c8.8-6.9,16.5-14.8,22.7-22.8c0.8,0.1,1.6,0.2,2.4,0.4c3.4,0.6,6.5,1.8,10,2.9
		c3.1,1.5,6.5,2.7,9.5,4.6c3.1,1.6,5.9,3.8,8.7,5.7c2.5,2.2,5.3,4.3,7.4,6.7c2.2,2.2,4.3,4.6,5.9,6.9c1.8,2.2,3.1,4.5,4.4,6.5
		c1.3,2,2.4,3.8,3,5.4c1.5,3.1,2.4,4.9,2.4,4.9s-0.3-1.9-0.9-5.4c-0.2-1.8-0.7-3.8-1.3-6.2s-1.3-5.2-2.5-8c-1-2.9-2.4-5.9-4-9.1
		c-1.5-3.2-3.7-6.3-5.8-9.7c-2.5-3.1-4.8-6.5-7.8-9.5c-2.8-3.2-6.2-5.9-9.5-8.8c-3.1-2.2-6.4-4.6-9.9-6.5c1.5-3.1,2.7-6.3,3.7-9.3
		c12.4,5.6,25.1,12.7,35.2,22.8c37.1,37.1,22.5,80.2,51.1,51.7c4.5-4.5,8.2-9.2,11.1-13.9c1,0,2-0.1,2.8,0.1c3.9,1,6.4,4,7.8,6.4
		c3.9,6.5,4.8,15.9,2.4,25.3c-3.6,14-12.8,22.3-20.2,23.2l-6,0.8l-1.6,5.9c-14.2,51.5-52.5,106.3-95.8,106.3s-81.5-54.8-95.8-106.3
		l-1.6-5.9l-6-0.8c-7.3-1-16.6-9.3-20.2-23.2c-2.4-9.4-1.5-18.8,2.4-25.3C156.1,137.2,158.1,134.9,160.8,133.5z"/>
	<path d="M387.5,334.1c-11.6,19.8-25.1,36.5-42.9,45.7c-36.8,18.8-64.2,34.2-64.2,34.2l-0.1-0.1v-0.3l-0.3,0.2l-0.3-0.2v0.3
		l-0.1,0.1c0,0-27.3-15.2-64.2-34.2c-17.8-9.2-31.2-25.9-42.9-45.7c-54.5,22.2-92.5,73-92.5,117.5c0,46.8,0,92.2,0,92.2h199.6h0.8
		H480c0,0,0-45.4,0-92.2C480,407.2,441.9,356.3,387.5,334.1z"/>
</g>
</svg>
