<?xml version="1.0" encoding="utf-8"?>
<!-- Generator: Adobe Illustrator 18.0.0, SVG Export Plug-In . SVG Version: 6.00 Build 0)  -->
<!DOCTYPE svg PUBLIC "-//W3C//DTD SVG 1.1//EN" "http://www.w3.org/Graphics/SVG/1.1/DTD/svg11.dtd">
<svg version="1.1" id="Capa_1" xmlns="http://www.w3.org/2000/svg" xmlns:xlink="http://www.w3.org/1999/xlink" x="0px" y="0px"
	 width="550px" height="550px" viewBox="0 0 550 550" enable-background="new 0 0 550 550" xml:space="preserve">
<g>
	<path d="M122.2,206.5c4.8,19,17.1,33.8,31.9,38.9c17.3,56.6,61.5,115.4,121.5,115.4S379.8,302,397,245.4
		c14.7-5.1,27.1-19.9,31.9-38.9c6.8-27.2-3.8-52.4-24.1-58.7c4.5-6.6,9.5-13.1,9.5-20.5c0-11.1-11.4-20.3-15.2-30.6
		c-3.7-10.2-0.9-24.5-7.9-33.2c-6.7-8.4-21.3-9.1-30.4-15.7c-8.6-6.3-13.4-20.1-23.8-24.6c-9.8-4.2-23.2,1.7-34.3-0.4
		C292.2,20.7,282.2,10,270.9,10s-21.3,10.7-31.8,12.8c-11,2.2-24.4-3.8-34.3,0.4c-10.4,4.4-15.2,18.2-23.8,24.6
		c-9.1,6.7-23.7,7.3-30.4,15.7c-6.9,8.7-4,23-7.9,33.2c-3.7,10.2-15.2,19.3-15.2,30.6c0,8.6,6.8,15.9,11.6,23.6
		C123.7,160.2,116.2,182.6,122.2,206.5z M409.2,201.6c-3.8,15.3-13.9,24.4-21.7,25.5l-6.6,0.9l-1.7,6.4
		c-14.4,52.9-54.6,106.3-103.7,106.3s-89.2-53.4-103.7-106.3l-1.7-6.4l-6.6-0.9c-7.9-1.1-17.9-10.2-21.7-25.5
		c-2.8-11.4-1.1-22.6,3.7-29.3c2-2.7,4.4-4.8,7.3-5.5c0.7-0.1,1.3-0.2,2.2-0.2c0.5,0,1.1,0,1.6,0.1l9.5,0.9l1.4-9.4
		c3.7-24.8,12.5-46.3,25-63.6c2.2,4.9,1.4,14,6.4,17c4.7,2.9,14.4-3.2,20.4-1c5.4,2,8.4,12.9,14.5,14.3c5.7,1.2,13.1-7.3,19.3-6.8
		c5.8,0.5,11.3,10.6,17.5,10.6s11.7-9.9,17.5-10.6c6.1-0.7,13.7,8,19.2,6.8c6.1-1.3,9.2-12.3,14.5-14.3c6-2.2,15.6,3.8,20.4,1
		c5.7-3.5,3.9-14.5,7.3-18.7c1.2-1.4,2.9-2.7,4.8-3.8c14.7,18,25.1,41.6,29.2,69l1.4,9.4l9.5-0.9c1-0.1,1.9,0,2.7,0.1
		c0.3,0,0.8,0,1.1,0C408.2,169.3,413.2,185.5,409.2,201.6z"/>
	<path d="M372.1,201.3c-3.2-24.8-65.1-37-76-12.3c-0.5,1.3-1.2,4-1.2,4c-12.6-5.9-27.2-5.7-39.8,0.5c-0.3-1.5-0.7-3.2-1.3-4.6
		c-11.3-25.2-76.4-11.7-76.4,14.4c0,0.4,0.1,0.9,0.1,1.3c0.7,11.5,9.9,19.1,21.8,23c17.3,5.7,39.8,3.5,48.8-6.7
		c4.2-4.7,6.8-10.7,7.6-16.9c11.5-7.4,26.2-7.6,38-0.7c0.3,0.2,0.8,0.5,1.1,0.8c0.2,6.2,2.9,12.2,7.1,16.9c7.2,8.1,22.5,11,37.2,9.2
		c0,0,0.1,0,0.1-0.1c17-2.3,32.9-11.1,32.9-26.8C372.2,202.6,372.1,202,372.1,201.3C372.1,201.4,372.1,201.4,372.1,201.3z"/>
	<path d="M387.8,320.2c-12.2,20.8-26.3,38.3-45,47.8c-38.6,19.8-67.3,35.7-67.3,35.7l-0.1-0.1v-0.3l-0.4,0.2l-0.3-0.2v0.4l-0.1,0.1
		c0,0-28.7-15.9-67.3-35.7c-18.7-9.6-32.8-27.1-45-47.8c-57.2,23.3-97,76.6-97,123.1c0,49,0,96.6,0,96.6h209.3h0.8h209.4
		c0,0,0-47.5,0-96.6C484.5,396.8,445,343.4,387.8,320.2z"/>
</g>
</svg>
