<?xml version="1.0" encoding="utf-8"?>
<!-- Generator: Adobe Illustrator 18.0.0, SVG Export Plug-In . SVG Version: 6.00 Build 0)  -->
<!DOCTYPE svg PUBLIC "-//W3C//DTD SVG 1.1//EN" "http://www.w3.org/Graphics/SVG/1.1/DTD/svg11.dtd">
<svg version="1.1" id="Capa_1" xmlns="http://www.w3.org/2000/svg" xmlns:xlink="http://www.w3.org/1999/xlink" x="0px" y="0px"
	 width="550px" height="550px" viewBox="0 0 550 550" enable-background="new 0 0 550 550" xml:space="preserve">
<g>
	<path d="M302.3,7.9c-9.1,10.2-20.9,14.2-33.7,7.6c-10.6-5.6-26-3.4-31.8,8.3c-5.9,11.9-13.2,21.1-24,28.6
		c-38.9,22.3-66.3,65-70.2,114.9c-14,9.5-20.5,30.2-14.9,52.3c4.6,18.3,16.5,32.5,30.6,37.4c16.6,54.4,59.1,110.9,116.6,110.9
		S375,311.4,391.5,256.9c14.1-4.9,26-19,30.6-37.4c5.5-22.1-1-42.8-14.9-52.3c-3.2-41.9-23.2-78.6-52.5-102.6c0,0,0-0.1-0.1-0.1
		c-10.2-11.9-13.4-24.9-12.7-40.3C343,4.4,315.7-7.2,302.3,7.9z M382.5,239.2l-6.4,0.9l-1.7,6.2c-4.8,17.5-12.5,35.1-22.6,50.6
		c-18.9,29.5-46.1,51.5-76.9,51.5s-58-22.1-76.9-51.5c-10-15.6-17.8-33-22.6-50.6l-1.7-6.2l-6.4-0.9c-7.6-1-17.2-9.7-20.9-24.4
		c-3.9-15.5,1.1-31,10.6-33.4c0.6-0.1,1.2-0.2,2.1-0.2c0.6,0,1.1,0,1.6,0.1l9.1,0.8l1.3-9.1c3-20,9-36.8,18-52
		c1.8,0,171.1,0,171.5,0c8.8,14.9,15,32.3,18,52l1.3,9.1l9.1-0.8c1.3-0.1,2.7-0.1,3.7,0.1c9.5,2.4,14.4,18,10.5,33.4
		C399.8,229.5,390.1,238.2,382.5,239.2z"/>
	<path d="M382.5,337.5c-11.6,19.8-25.1,36.5-42.9,45.7c-36.8,18.8-64.2,34.2-64.2,34.2l-0.1-0.1v-0.3l-0.3,0.2l-0.3-0.2v0.3
		l-0.1,0.1c0,0-27.3-15.2-64.2-34.2c-17.8-9.2-31.2-25.9-42.9-45.7C112.9,359.6,75,410.5,75,455c0,46.8,0,92.2,0,92.2h199.5h0.8H475
		c0,0,0-45.4,0-92.2C475,410.5,437,359.5,382.5,337.5z"/>
</g>
</svg>
