<?xml version="1.0" encoding="utf-8"?>
<!-- Generator: Adobe Illustrator 18.0.0, SVG Export Plug-In . SVG Version: 6.00 Build 0)  -->
<!DOCTYPE svg PUBLIC "-//W3C//DTD SVG 1.1//EN" "http://www.w3.org/Graphics/SVG/1.1/DTD/svg11.dtd">
<svg version="1.1" id="Capa_1" xmlns="http://www.w3.org/2000/svg" xmlns:xlink="http://www.w3.org/1999/xlink" x="0px" y="0px"
	 width="550px" height="550px" viewBox="0 0 550 550" enable-background="new 0 0 550 550" xml:space="preserve">
<path d="M395,327c-11.5,19.7-24.9,36.4-42.5,45.4c-36.4,18.7-68.7,35.9-68.7,35.9l-62.7-35.9c-17.9-9.2-40.4-26.2-53.3-46.4
	C113,347.7,63.5,399.1,63.5,443.9v96.2h423.1c0,0,0-49.7,0-96.2C486.5,399.7,448.9,349.1,395,327z M400.2,155.5
	c-1.3-17-5.5-33-12.1-47.6c0.7-8.8,3.1-19.2,6.3-29.6c6-20.2,1.7-25.6-14.9-18.9c-16.6,6.7-39.7-15-47-33.1
	c-7.7-19.1-19.4-8.5-27-1.8c-11.8,10.4-37.8,4.6-45.7-8c-7.9-12.6-20.1-4.9-30,5.8c-6.5,7.1-14.4,12.4-22.8,11.4
	c-16.4-1.8-33.9-26.2-33.1-2c1.4,40.7-12,75.4-12,75.4c-6.7,14.8-11.1,31.2-12.4,48.4c-13.2,9-19.4,28.7-14.2,49.6
	c4.3,17.3,15.6,30.8,29,35.4c15.7,51.4,56,104.9,110.5,104.9s94.8-53.5,110.5-105.1c13.4-4.6,24.7-18.1,29-35.4
	C419.8,184.2,413.6,164.6,400.2,155.5z M396.8,200.6c-3.5,13.9-12.6,22.2-19.8,23.1l-6,0.8l-1.6,5.9c-4.5,16.6-11.9,33.2-21.4,47.9
	c-18,27.9-43.7,48.8-72.9,48.8s-54.9-20.9-72.9-48.8c-9.5-14.7-16.9-31.3-21.4-47.9l-1.6-5.9l-6-0.8c-7.2-1-16.3-9.2-19.8-23.1
	c-3.7-14.6,1-29.4,10-31.6c0.6-0.2,1.2-0.2,2-0.2c0.6,0,1,0,1.6,0.1l8.7,0.7l1.3-8.6c1.8-12.4,5.2-23.8,9.5-34.2
	c2.8-7,7.4-18.2,13.5-24.1c15.5-14.8,43-24.4,74.2-24.4c37.7,0,70,14,82.7,33.9l0.1,0.2c8.1,13.9,13.9,30.3,16.6,48.6l1.3,8.6
	l8.7-0.7c1.3-0.1,2.6-0.1,3.5,0.2C395.7,171.2,400.4,186,396.8,200.6z"/>
</svg>
